# Blender v3.0.0 OBJ File: ''
# www.blender.org
mtllib biurko.mtl
o Kostka_Kostka.001
v -0.398192 -0.417896 0.862748
v -0.398192 0.417895 0.862748
v -0.398192 0.417895 0.730018
v -0.398192 -0.417896 0.730018
v -0.265461 0.417895 0.730018
v -0.265461 -0.417896 0.730018
v -0.265461 0.417895 0.862748
v -0.265461 -0.417896 0.862748
v -0.398192 -0.417895 -0.730018
v -0.398192 0.417896 -0.730018
v -0.398192 0.417896 -0.862748
v -0.398192 -0.417895 -0.862748
v -0.265461 0.417896 -0.862748
v -0.265461 -0.417895 -0.862748
v -0.265461 0.417896 -0.730018
v -0.265461 -0.417895 -0.730018
v 0.265461 -0.417895 -0.730018
v 0.265461 0.417896 -0.730018
v 0.265461 0.417896 -0.862748
v 0.265461 -0.417895 -0.862748
v 0.398192 0.417896 -0.862748
v 0.398192 -0.417895 -0.862748
v 0.398192 0.417896 -0.730018
v 0.398192 -0.417895 -0.730018
v 0.265461 -0.417896 0.862748
v 0.265461 0.417895 0.862748
v 0.265461 0.417895 0.730018
v 0.265461 -0.417896 0.730018
v 0.398192 0.417895 0.730018
v 0.398192 -0.417896 0.730018
v 0.398192 0.417895 0.862748
v 0.398192 -0.417896 0.862748
vt 0.311275 0.855392
vt 0.311275 0.977941
vt 0.188725 0.977941
vt 0.188725 0.855392
vt 0.311275 0.355392
vt 0.311275 0.477941
vt 0.188725 0.477941
vt 0.188725 0.355392
vt 0.977941 0.188725
vt 0.977941 0.311274
vt 0.855392 0.311274
vt 0.855392 0.188725
vt 0.144608 0.522059
vt 0.144608 0.644608
vt 0.022059 0.644608
vt 0.022059 0.522059
vt 0.522059 0.022058
vt 0.644608 0.022058
vt 0.644608 0.144608
vt 0.522059 0.144608
vt 0.188725 0.522058
vt 0.311275 0.522058
vt 0.311275 0.644608
vt 0.188725 0.644608
vt 0.977941 0.022059
vt 0.977941 0.144608
vt 0.855392 0.144608
vt 0.855392 0.022059
vt 0.477941 0.522059
vt 0.477941 0.644608
vt 0.355392 0.644608
vt 0.355392 0.522059
vt 0.644608 0.688725
vt 0.644608 0.811274
vt 0.522058 0.811274
vt 0.522058 0.688725
vt 0.644608 0.522059
vt 0.644608 0.644608
vt 0.522059 0.644608
vt 0.522059 0.522059
vt 0.022059 0.688725
vt 0.144608 0.688725
vt 0.144608 0.811275
vt 0.022059 0.811275
vt 0.688725 0.022058
vt 0.811274 0.022058
vt 0.811274 0.144608
vt 0.688725 0.144608
vt 0.811275 0.522059
vt 0.811275 0.644608
vt 0.688725 0.644608
vt 0.688725 0.522059
vt 0.311275 0.688725
vt 0.311275 0.811274
vt 0.188725 0.811274
vt 0.188725 0.688725
vt 0.977941 0.355392
vt 0.977941 0.477941
vt 0.855392 0.477941
vt 0.855392 0.355392
vt 0.477941 0.688725
vt 0.477941 0.811274
vt 0.355392 0.811274
vt 0.355392 0.688725
vt 0.688725 0.188725
vt 0.811274 0.188725
vt 0.811274 0.311275
vt 0.688725 0.311275
vt 0.522059 0.355392
vt 0.644608 0.355392
vt 0.644608 0.477941
vt 0.522059 0.477941
vt 0.811275 0.688725
vt 0.811275 0.811274
vt 0.688725 0.811274
vt 0.688725 0.688725
vt 0.644608 0.188725
vt 0.644608 0.311274
vt 0.522059 0.311274
vt 0.522059 0.188725
vt 0.144608 0.855392
vt 0.144608 0.977941
vt 0.022058 0.977941
vt 0.022058 0.855392
vt 0.477941 0.355392
vt 0.477941 0.477941
vt 0.355392 0.477941
vt 0.355392 0.355392
vt 0.355392 0.188725
vt 0.477941 0.188725
vt 0.477941 0.311275
vt 0.355392 0.311275
vt 0.688725 0.355392
vt 0.811275 0.355392
vt 0.811275 0.477941
vt 0.688725 0.477941
vn -1.0000 0.0000 0.0000
vn 0.0000 0.0000 -1.0000
vn 1.0000 -0.0000 0.0000
vn 0.0000 -0.0000 1.0000
vn 0.0000 -1.0000 -0.0000
vn 0.0000 1.0000 0.0000
usemtl Materiał.001
s 1
f 1/1/1 2/2/1 3/3/1 4/4/1
f 4/5/2 3/6/2 5/7/2 6/8/2
f 6/9/3 5/10/3 7/11/3 8/12/3
f 8/13/4 7/14/4 2/15/4 1/16/4
f 4/17/5 6/18/5 8/19/5 1/20/5
f 5/21/6 3/22/6 2/23/6 7/24/6
f 9/25/1 10/26/1 11/27/1 12/28/1
f 12/29/2 11/30/2 13/31/2 14/32/2
f 14/33/3 13/34/3 15/35/3 16/36/3
f 16/37/4 15/38/4 10/39/4 9/40/4
f 12/41/5 14/42/5 16/43/5 9/44/5
f 13/45/6 11/46/6 10/47/6 15/48/6
f 17/49/1 18/50/1 19/51/1 20/52/1
f 20/53/2 19/54/2 21/55/2 22/56/2
f 22/57/3 21/58/3 23/59/3 24/60/3
f 24/61/4 23/62/4 18/63/4 17/64/4
f 20/65/5 22/66/5 24/67/5 17/68/5
f 21/69/6 19/70/6 18/71/6 23/72/6
f 25/73/1 26/74/1 27/75/1 28/76/1
f 28/77/2 27/78/2 29/79/2 30/80/2
f 30/81/3 29/82/3 31/83/3 32/84/3
f 32/85/4 31/86/4 26/87/4 25/88/4
f 28/89/5 30/90/5 32/91/5 25/92/5
f 29/93/6 27/94/6 26/95/6 31/96/6
o Kostka.001_Kostka.002
v -0.439793 0.427673 1.000000
v -0.439793 0.427673 -1.000000
v -0.439793 0.369642 -1.000000
v -0.439793 0.369642 1.000000
v 0.439793 0.427673 -1.000000
v 0.439793 0.369642 -1.000000
v 0.439793 0.427673 1.000000
v 0.439793 0.369642 1.000000
vt 0.144608 0.022059
vt 0.022059 0.022059
vt 0.022059 0.144608
vt 0.144608 0.144608
vt 0.144608 0.188725
vt 0.022059 0.188725
vt 0.022059 0.311274
vt 0.144608 0.311274
vt 0.311274 0.022059
vt 0.188725 0.022059
vt 0.188725 0.144608
vt 0.311274 0.144608
vt 0.311274 0.188725
vt 0.188725 0.188725
vt 0.188725 0.311274
vt 0.311274 0.311274
vt 0.022059 0.355392
vt 0.022059 0.477941
vt 0.144608 0.477941
vt 0.144608 0.355392
vt 0.355392 0.022059
vt 0.355392 0.144608
vt 0.477941 0.144608
vt 0.477941 0.022059
vn -1.0000 0.0000 0.0000
vn 0.0000 0.0000 -1.0000
vn 1.0000 0.0000 0.0000
vn 0.0000 0.0000 1.0000
vn 0.0000 1.0000 0.0000
vn 0.0000 -1.0000 -0.0000
usemtl Materiał.001
s 1
f 33/97/7 34/98/7 35/99/7 36/100/7
f 34/101/8 37/102/8 38/103/8 35/104/8
f 37/105/9 39/106/9 40/107/9 38/108/9
f 39/109/10 33/110/10 36/111/10 40/112/10
f 34/113/11 33/114/11 39/115/11 37/116/11
f 38/117/12 40/118/12 36/119/12 35/120/12
