# Blender v3.0.0 OBJ File: ''
# www.blender.org
mtllib Bschody.mtl
o Kostka.001
v 0.102418 -0.287626 0.744192
v 0.102418 0.287626 0.744192
v -0.102418 0.287626 0.744192
v -0.102418 -0.287626 0.744192
v -0.102418 0.287626 -0.744192
v -0.102418 -0.287626 -0.744192
v 0.102418 0.287626 -0.744192
v 0.102418 -0.287626 -0.744192
v 0.307253 -0.460201 0.744192
v 0.307253 0.115050 0.744192
v 0.102418 0.115050 0.744192
v 0.102418 -0.460201 0.744192
v 0.102418 0.115050 -0.744192
v 0.102418 -0.460201 -0.744192
v 0.307253 0.115050 -0.744192
v 0.307253 -0.460201 -0.744192
v 0.512088 -0.632777 0.744192
v 0.512088 -0.057525 0.744192
v 0.307253 -0.057525 0.744192
v 0.307253 -0.632777 0.744192
v 0.307253 -0.057525 -0.744192
v 0.307253 -0.632777 -0.744192
v 0.512088 -0.057525 -0.744192
v 0.512088 -0.632777 -0.744192
v -0.480814 0.273455 0.744192
v -0.480814 0.848707 0.744192
v -0.685649 0.848707 0.744192
v -0.685649 0.273455 0.744192
v -0.685649 0.848707 -0.744192
v -0.685649 0.273455 -0.744192
v -0.480814 0.848707 -0.744192
v -0.480814 0.273455 -0.744192
v -0.275979 0.100879 0.744192
v -0.275979 0.676131 0.744192
v -0.480814 0.676131 0.744192
v -0.480814 0.100879 0.744192
v -0.480814 0.676131 -0.744192
v -0.480814 0.100879 -0.744192
v -0.275979 0.676131 -0.744192
v -0.275979 0.100879 -0.744192
v -0.071144 -0.071696 0.744192
v -0.071144 0.503556 0.744192
v -0.275979 0.503556 0.744192
v -0.275979 -0.071696 0.744192
v -0.275979 0.503556 -0.744192
v -0.275979 -0.071696 -0.744192
v -0.071144 0.503556 -0.744192
v -0.071144 -0.071696 -0.744192
v -1.064046 0.834536 0.744192
v -1.064046 1.409787 0.744192
v -1.268881 1.409787 0.744192
v -1.268881 0.834536 0.744192
v -1.268881 1.409787 -0.744192
v -1.268881 0.834536 -0.744192
v -1.064046 1.409787 -0.744192
v -1.064046 0.834536 -0.744192
v -0.859211 0.661960 0.744192
v -0.859211 1.237212 0.744192
v -1.064046 1.237212 0.744192
v -1.064046 0.661960 0.744192
v -1.064046 1.237212 -0.744192
v -1.064046 0.661960 -0.744192
v -0.859211 1.237212 -0.744192
v -0.859211 0.661960 -0.744192
v -0.654375 0.489385 0.744192
v -0.654375 1.064636 0.744192
v -0.859211 1.064636 0.744192
v -0.859211 0.489385 0.744192
v -0.859211 1.064636 -0.744192
v -0.859211 0.489385 -0.744192
v -0.654376 1.064636 -0.744192
v -0.654376 0.489385 -0.744192
v -1.647277 1.395617 0.744192
v -1.647277 1.970868 0.744192
v -1.852113 1.970868 0.744192
v -1.852113 1.395617 0.744192
v -1.852113 1.970868 -0.744192
v -1.852113 1.395617 -0.744192
v -1.647277 1.970868 -0.744192
v -1.647277 1.395617 -0.744192
v -1.442442 1.223041 0.744192
v -1.442442 1.798293 0.744192
v -1.647277 1.798293 0.744192
v -1.647277 1.223041 0.744192
v -1.647277 1.798293 -0.744192
v -1.647277 1.223041 -0.744192
v -1.442442 1.798293 -0.744192
v -1.442442 1.223041 -0.744192
v -1.237607 1.050465 0.744192
v -1.237607 1.625717 0.744192
v -1.442442 1.625717 0.744192
v -1.442442 1.050465 0.744192
v -1.442442 1.625717 -0.744192
v -1.442442 1.050465 -0.744192
v -1.237607 1.625717 -0.744192
v -1.237607 1.050465 -0.744192
v 0.111736 0.284857 0.765223
v 0.111736 0.302358 0.765223
v -0.123059 0.302358 0.765223
v -0.123059 0.284857 0.765223
v -0.123059 0.302358 -0.764717
v -0.123059 0.284857 -0.764717
v 0.111736 0.302358 -0.764717
v 0.111736 0.284857 -0.764717
v 0.318356 0.106347 0.765223
v 0.318356 0.123848 0.765223
v 0.083561 0.123848 0.765223
v 0.083561 0.106347 0.765223
v 0.083561 0.123848 -0.764717
v 0.083561 0.106347 -0.764717
v 0.318356 0.123848 -0.764717
v 0.318356 0.106347 -0.764717
v 0.524976 -0.072163 0.765223
v 0.524976 -0.054662 0.765223
v 0.290181 -0.054662 0.765223
v 0.290181 -0.072163 0.765223
v 0.290181 -0.054662 -0.764717
v 0.290181 -0.072163 -0.764717
v 0.524976 -0.054662 -0.764717
v 0.524976 -0.072163 -0.764717
v -0.471495 0.845938 0.765223
v -0.471495 0.863439 0.765223
v -0.706291 0.863439 0.765223
v -0.706291 0.845938 0.765223
v -0.706291 0.863439 -0.764716
v -0.706291 0.845938 -0.764716
v -0.471496 0.863439 -0.764717
v -0.471496 0.845938 -0.764717
v -0.264876 0.667428 0.765223
v -0.264876 0.684929 0.765223
v -0.499671 0.684929 0.765223
v -0.499671 0.667428 0.765223
v -0.499671 0.684929 -0.764717
v -0.499671 0.667428 -0.764717
v -0.264876 0.684929 -0.764717
v -0.264876 0.667428 -0.764717
v -0.058256 0.488918 0.765223
v -0.058256 0.506419 0.765223
v -0.293051 0.506419 0.765223
v -0.293051 0.488918 0.765223
v -0.293051 0.506419 -0.764717
v -0.293051 0.488918 -0.764717
v -0.058256 0.506419 -0.764717
v -0.058256 0.488918 -0.764717
v -1.054727 1.407018 0.765223
v -1.054727 1.424519 0.765223
v -1.289523 1.424519 0.765223
v -1.289523 1.407018 0.765223
v -1.289523 1.424519 -0.764716
v -1.289523 1.407018 -0.764716
v -1.054727 1.424519 -0.764716
v -1.054727 1.407018 -0.764716
v -0.848107 1.228508 0.765223
v -0.848107 1.246009 0.765223
v -1.082903 1.246009 0.765223
v -1.082903 1.228508 0.765223
v -1.082903 1.246009 -0.764716
v -1.082903 1.228508 -0.764716
v -0.848107 1.246009 -0.764716
v -0.848107 1.228508 -0.764716
v -0.641487 1.049999 0.765223
v -0.641487 1.067500 0.765223
v -0.876283 1.067500 0.765223
v -0.876283 1.049999 0.765223
v -0.876283 1.067500 -0.764716
v -0.876283 1.049999 -0.764716
v -0.641487 1.067500 -0.764717
v -0.641487 1.049999 -0.764717
v -1.637959 1.968099 0.765223
v -1.637959 1.985600 0.765223
v -2.913981 1.985600 0.765223
v -2.913981 1.968099 0.765223
v -2.913981 1.985600 -0.764716
v -2.913981 1.968099 -0.764716
v -1.637959 1.985600 -0.764716
v -1.637959 1.968099 -0.764716
v -1.431339 1.789589 0.765223
v -1.431339 1.807090 0.765223
v -1.666134 1.807090 0.765223
v -1.666134 1.789589 0.765223
v -1.666134 1.807090 -0.764716
v -1.666134 1.789589 -0.764716
v -1.431339 1.807090 -0.764716
v -1.431339 1.789589 -0.764716
v -1.224719 1.611079 0.765223
v -1.224719 1.628580 0.765223
v -1.459514 1.628580 0.765223
v -1.459514 1.611079 0.765223
v -1.459514 1.628580 -0.764716
v -1.459514 1.611079 -0.764716
v -1.224719 1.628580 -0.764716
v -1.224719 1.611079 -0.764716
vt 0.311274 0.688725
vt 0.311274 0.811274
vt 0.188725 0.811274
vt 0.188725 0.688725
vt 0.811275 0.188725
vt 0.811275 0.311274
vt 0.688726 0.311274
vt 0.688726 0.188725
vt 0.477941 0.688725
vt 0.477941 0.811274
vt 0.355392 0.811274
vt 0.355392 0.688725
vt 0.811275 0.355392
vt 0.811275 0.477941
vt 0.688726 0.477941
vt 0.688726 0.355392
vt 0.522059 0.688725
vt 0.644608 0.688725
vt 0.644608 0.811274
vt 0.522059 0.811274
vt 0.688726 0.522059
vt 0.811275 0.522059
vt 0.811275 0.644608
vt 0.688726 0.644608
vt 0.977941 0.311274
vt 0.855392 0.311274
vt 0.855392 0.188725
vt 0.977941 0.188725
vt 0.144608 0.855392
vt 0.144608 0.977941
vt 0.022059 0.977941
vt 0.022059 0.855392
vt 0.644608 0.977941
vt 0.522059 0.977941
vt 0.522059 0.855392
vt 0.644608 0.855392
vt 0.977941 0.022059
vt 0.977941 0.144608
vt 0.855392 0.144608
vt 0.855392 0.022059
vt 0.688725 0.688725
vt 0.811274 0.688725
vt 0.811274 0.811274
vt 0.688725 0.811274
vt 0.522059 0.022059
vt 0.644608 0.022059
vt 0.644608 0.144608
vt 0.522059 0.144608
vt 0.977941 0.477941
vt 0.855392 0.477941
vt 0.855392 0.355392
vt 0.977941 0.355392
vt 0.811274 0.977941
vt 0.688725 0.977941
vt 0.688725 0.855392
vt 0.811274 0.855392
vt 0.477941 0.977941
vt 0.355392 0.977941
vt 0.355392 0.855392
vt 0.477941 0.855392
vt 0.977941 0.644608
vt 0.855392 0.644608
vt 0.855392 0.522059
vt 0.977941 0.522059
vt 0.022059 0.522059
vt 0.144608 0.522059
vt 0.144608 0.644608
vt 0.022059 0.644608
vt 0.188725 0.855392
vt 0.311274 0.855392
vt 0.311274 0.977941
vt 0.188725 0.977941
vt 0.311274 0.688725
vt 0.311274 0.811274
vt 0.188725 0.811274
vt 0.188725 0.688725
vt 0.811275 0.188725
vt 0.811275 0.311274
vt 0.688726 0.311274
vt 0.688726 0.188725
vt 0.477941 0.688725
vt 0.477941 0.811274
vt 0.355392 0.811274
vt 0.355392 0.688725
vt 0.811275 0.355392
vt 0.811275 0.477941
vt 0.688726 0.477941
vt 0.688726 0.355392
vt 0.522059 0.688725
vt 0.644608 0.688725
vt 0.644608 0.811274
vt 0.522059 0.811274
vt 0.688726 0.522059
vt 0.811275 0.522059
vt 0.811275 0.644608
vt 0.688726 0.644608
vt 0.977941 0.311274
vt 0.855392 0.311274
vt 0.855392 0.188725
vt 0.977941 0.188725
vt 0.144608 0.855392
vt 0.144608 0.977941
vt 0.022059 0.977941
vt 0.022059 0.855392
vt 0.644608 0.977941
vt 0.522059 0.977941
vt 0.522059 0.855392
vt 0.644608 0.855392
vt 0.977941 0.022059
vt 0.977941 0.144608
vt 0.855392 0.144608
vt 0.855392 0.022059
vt 0.688725 0.688725
vt 0.811274 0.688725
vt 0.811274 0.811274
vt 0.688725 0.811274
vt 0.522059 0.022059
vt 0.644608 0.022059
vt 0.644608 0.144608
vt 0.522059 0.144608
vt 0.977941 0.477941
vt 0.855392 0.477941
vt 0.855392 0.355392
vt 0.977941 0.355392
vt 0.811274 0.977941
vt 0.688725 0.977941
vt 0.688725 0.855392
vt 0.811274 0.855392
vt 0.477941 0.977941
vt 0.355392 0.977941
vt 0.355392 0.855392
vt 0.477941 0.855392
vt 0.977941 0.644608
vt 0.855392 0.644608
vt 0.855392 0.522059
vt 0.977941 0.522059
vt 0.022059 0.522059
vt 0.144608 0.522059
vt 0.144608 0.644608
vt 0.022059 0.644608
vt 0.188725 0.855392
vt 0.311274 0.855392
vt 0.311274 0.977941
vt 0.188725 0.977941
vt 0.311274 0.688725
vt 0.311274 0.811274
vt 0.188725 0.811274
vt 0.188725 0.688725
vt 0.811275 0.188725
vt 0.811275 0.311274
vt 0.688726 0.311274
vt 0.688726 0.188725
vt 0.477941 0.688725
vt 0.477941 0.811274
vt 0.355392 0.811274
vt 0.355392 0.688725
vt 0.811275 0.355392
vt 0.811275 0.477941
vt 0.688726 0.477941
vt 0.688726 0.355392
vt 0.522059 0.688725
vt 0.644608 0.688725
vt 0.644608 0.811274
vt 0.522059 0.811274
vt 0.688726 0.522059
vt 0.811275 0.522059
vt 0.811275 0.644608
vt 0.688726 0.644608
vt 0.977941 0.311274
vt 0.855392 0.311274
vt 0.855392 0.188725
vt 0.977941 0.188725
vt 0.144608 0.855392
vt 0.144608 0.977941
vt 0.022059 0.977941
vt 0.022059 0.855392
vt 0.644608 0.977941
vt 0.522059 0.977941
vt 0.522059 0.855392
vt 0.644608 0.855392
vt 0.977941 0.022059
vt 0.977941 0.144608
vt 0.855392 0.144608
vt 0.855392 0.022059
vt 0.688725 0.688725
vt 0.811274 0.688725
vt 0.811274 0.811274
vt 0.688725 0.811274
vt 0.522059 0.022059
vt 0.644608 0.022059
vt 0.644608 0.144608
vt 0.522059 0.144608
vt 0.977941 0.477941
vt 0.855392 0.477941
vt 0.855392 0.355392
vt 0.977941 0.355392
vt 0.811274 0.977941
vt 0.688725 0.977941
vt 0.688725 0.855392
vt 0.811274 0.855392
vt 0.477941 0.977941
vt 0.355392 0.977941
vt 0.355392 0.855392
vt 0.477941 0.855392
vt 0.977941 0.644608
vt 0.855392 0.644608
vt 0.855392 0.522059
vt 0.977941 0.522059
vt 0.022059 0.522059
vt 0.144608 0.522059
vt 0.144608 0.644608
vt 0.022059 0.644608
vt 0.188725 0.855392
vt 0.311274 0.855392
vt 0.311274 0.977941
vt 0.188725 0.977941
vt 0.311274 0.688725
vt 0.311274 0.811274
vt 0.188725 0.811274
vt 0.188725 0.688725
vt 0.811275 0.188725
vt 0.811275 0.311274
vt 0.688726 0.311274
vt 0.688726 0.188725
vt 0.477941 0.688725
vt 0.477941 0.811274
vt 0.355392 0.811274
vt 0.355392 0.688725
vt 0.811275 0.355392
vt 0.811275 0.477941
vt 0.688726 0.477941
vt 0.688726 0.355392
vt 0.522059 0.688725
vt 0.644608 0.688725
vt 0.644608 0.811274
vt 0.522059 0.811274
vt 0.688726 0.522059
vt 0.811275 0.522059
vt 0.811275 0.644608
vt 0.688726 0.644608
vt 0.977941 0.311274
vt 0.855392 0.311274
vt 0.855392 0.188725
vt 0.977941 0.188725
vt 0.144608 0.855392
vt 0.144608 0.977941
vt 0.022059 0.977941
vt 0.022059 0.855392
vt 0.644608 0.977941
vt 0.522059 0.977941
vt 0.522059 0.855392
vt 0.644608 0.855392
vt 0.977941 0.022059
vt 0.977941 0.144608
vt 0.855392 0.144608
vt 0.855392 0.022059
vt 0.688725 0.688725
vt 0.811274 0.688725
vt 0.811274 0.811274
vt 0.688725 0.811274
vt 0.522059 0.022059
vt 0.644608 0.022059
vt 0.644608 0.144608
vt 0.522059 0.144608
vt 0.977941 0.477941
vt 0.855392 0.477941
vt 0.855392 0.355392
vt 0.977941 0.355392
vt 0.811274 0.977941
vt 0.688725 0.977941
vt 0.688725 0.855392
vt 0.811274 0.855392
vt 0.477941 0.977941
vt 0.355392 0.977941
vt 0.355392 0.855392
vt 0.477941 0.855392
vt 0.977941 0.644608
vt 0.855392 0.644608
vt 0.855392 0.522059
vt 0.977941 0.522059
vt 0.022059 0.522059
vt 0.144608 0.522059
vt 0.144608 0.644608
vt 0.022059 0.644608
vt 0.188725 0.855392
vt 0.311274 0.855392
vt 0.311274 0.977941
vt 0.188725 0.977941
vt 0.644608 0.355392
vt 0.644608 0.477941
vt 0.522059 0.477941
vt 0.522059 0.355392
vt 0.477941 0.522059
vt 0.477941 0.644608
vt 0.355392 0.644608
vt 0.355392 0.522059
vt 0.644608 0.188725
vt 0.644608 0.311274
vt 0.522059 0.311274
vt 0.522059 0.188725
vt 0.311275 0.522059
vt 0.311275 0.644608
vt 0.188726 0.644608
vt 0.188726 0.522059
vt 0.355392 0.355392
vt 0.477941 0.355392
vt 0.477941 0.477941
vt 0.355392 0.477941
vt 0.522359 0.644907
vt 0.521760 0.522359
vt 0.644307 0.521760
vt 0.644907 0.644307
vt 0.144608 0.311274
vt 0.022058 0.311274
vt 0.022058 0.188725
vt 0.144608 0.188725
vt 0.477942 0.311274
vt 0.355392 0.311274
vt 0.355392 0.188725
vt 0.477942 0.188725
vt 0.311274 0.311275
vt 0.188725 0.311275
vt 0.188725 0.188725
vt 0.311274 0.188725
vt 0.477942 0.144608
vt 0.355392 0.144608
vt 0.355392 0.022059
vt 0.477942 0.022059
vt 0.977941 0.688725
vt 0.977941 0.811274
vt 0.855392 0.811274
vt 0.855392 0.688725
vt 0.854947 0.855840
vt 0.977493 0.854947
vt 0.978386 0.977493
vt 0.855840 0.978386
vt 0.311275 0.144608
vt 0.188728 0.144608
vt 0.188728 0.022059
vt 0.311275 0.022059
vt 0.311275 0.477941
vt 0.188728 0.477941
vt 0.188728 0.355392
vt 0.311275 0.355392
vt 0.144608 0.144608
vt 0.022060 0.144608
vt 0.022060 0.022059
vt 0.144608 0.022059
vt 0.144608 0.477941
vt 0.022060 0.477941
vt 0.022060 0.355392
vt 0.144608 0.355392
vt 0.022059 0.688725
vt 0.144608 0.688725
vt 0.144608 0.811274
vt 0.022059 0.811274
vt 0.689489 0.145361
vt 0.687972 0.022822
vt 0.810512 0.021305
vt 0.812028 0.143845
vt 0.644608 0.355392
vt 0.644608 0.477941
vt 0.522059 0.477941
vt 0.522059 0.355392
vt 0.477941 0.522059
vt 0.477941 0.644608
vt 0.355392 0.644608
vt 0.355392 0.522059
vt 0.644608 0.188725
vt 0.644608 0.311274
vt 0.522059 0.311274
vt 0.522059 0.188725
vt 0.311275 0.522059
vt 0.311275 0.644608
vt 0.188726 0.644608
vt 0.188726 0.522059
vt 0.355392 0.355392
vt 0.477941 0.355392
vt 0.477941 0.477941
vt 0.355392 0.477941
vt 0.522359 0.644907
vt 0.521760 0.522359
vt 0.644307 0.521760
vt 0.644907 0.644307
vt 0.144608 0.311274
vt 0.022058 0.311274
vt 0.022058 0.188725
vt 0.144608 0.188725
vt 0.477942 0.311274
vt 0.355392 0.311274
vt 0.355392 0.188725
vt 0.477942 0.188725
vt 0.311274 0.311275
vt 0.188725 0.311275
vt 0.188725 0.188725
vt 0.311274 0.188725
vt 0.477942 0.144608
vt 0.355392 0.144608
vt 0.355392 0.022059
vt 0.477942 0.022059
vt 0.977941 0.688725
vt 0.977941 0.811274
vt 0.855392 0.811274
vt 0.855392 0.688725
vt 0.854947 0.855840
vt 0.977493 0.854947
vt 0.978386 0.977493
vt 0.855840 0.978386
vt 0.311275 0.144608
vt 0.188728 0.144608
vt 0.188728 0.022059
vt 0.311275 0.022059
vt 0.311275 0.477941
vt 0.188728 0.477941
vt 0.188728 0.355392
vt 0.311275 0.355392
vt 0.144608 0.144608
vt 0.022060 0.144608
vt 0.022060 0.022059
vt 0.144608 0.022059
vt 0.144608 0.477941
vt 0.022060 0.477941
vt 0.022060 0.355392
vt 0.144608 0.355392
vt 0.022059 0.688725
vt 0.144608 0.688725
vt 0.144608 0.811274
vt 0.022059 0.811274
vt 0.689489 0.145361
vt 0.687972 0.022822
vt 0.810512 0.021305
vt 0.812028 0.143845
vt 0.644608 0.355392
vt 0.644608 0.477941
vt 0.522059 0.477941
vt 0.522059 0.355392
vt 0.477941 0.522059
vt 0.477941 0.644608
vt 0.355392 0.644608
vt 0.355392 0.522059
vt 0.644608 0.188725
vt 0.644608 0.311274
vt 0.522059 0.311274
vt 0.522059 0.188725
vt 0.311275 0.522059
vt 0.311275 0.644608
vt 0.188726 0.644608
vt 0.188726 0.522059
vt 0.355392 0.355392
vt 0.477941 0.355392
vt 0.477941 0.477941
vt 0.355392 0.477941
vt 0.522359 0.644907
vt 0.521760 0.522359
vt 0.644307 0.521760
vt 0.644907 0.644307
vt 0.144608 0.311274
vt 0.022058 0.311274
vt 0.022058 0.188725
vt 0.144608 0.188725
vt 0.477942 0.311274
vt 0.355392 0.311274
vt 0.355392 0.188725
vt 0.477942 0.188725
vt 0.311274 0.311275
vt 0.188725 0.311275
vt 0.188725 0.188725
vt 0.311274 0.188725
vt 0.477942 0.144608
vt 0.355392 0.144608
vt 0.355392 0.022059
vt 0.477942 0.022059
vt 0.977941 0.688725
vt 0.977941 0.811274
vt 0.855392 0.811274
vt 0.855392 0.688725
vt 0.854947 0.855840
vt 0.977493 0.854947
vt 0.978386 0.977493
vt 0.855840 0.978386
vt 0.311275 0.144608
vt 0.188728 0.144608
vt 0.188728 0.022059
vt 0.311275 0.022059
vt 0.311275 0.477941
vt 0.188728 0.477941
vt 0.188728 0.355392
vt 0.311275 0.355392
vt 0.144608 0.144608
vt 0.022060 0.144608
vt 0.022060 0.022059
vt 0.144608 0.022059
vt 0.144608 0.477941
vt 0.022060 0.477941
vt 0.022060 0.355392
vt 0.144608 0.355392
vt 0.022059 0.688725
vt 0.144608 0.688725
vt 0.144608 0.811274
vt 0.022059 0.811274
vt 0.689489 0.145361
vt 0.687972 0.022822
vt 0.810512 0.021305
vt 0.812028 0.143845
vt 0.644608 0.355392
vt 0.644608 0.477941
vt 0.522059 0.477941
vt 0.522059 0.355392
vt 0.477941 0.522059
vt 0.477941 0.644608
vt 0.355392 0.644608
vt 0.355392 0.522059
vt 0.644608 0.188725
vt 0.644608 0.311274
vt 0.522059 0.311274
vt 0.522059 0.188725
vt 0.311275 0.522059
vt 0.311275 0.644608
vt 0.188726 0.644608
vt 0.188726 0.522059
vt 0.355392 0.355392
vt 0.477941 0.355392
vt 0.477941 0.477941
vt 0.355392 0.477941
vt 0.522359 0.644907
vt 0.521760 0.522359
vt 0.644307 0.521760
vt 0.644907 0.644307
vt 0.144608 0.311274
vt 0.022058 0.311274
vt 0.022058 0.188725
vt 0.144608 0.188725
vt 0.477942 0.311274
vt 0.355392 0.311274
vt 0.355392 0.188725
vt 0.477942 0.188725
vt 0.311274 0.311275
vt 0.188725 0.311275
vt 0.188725 0.188725
vt 0.311274 0.188725
vt 0.477942 0.144608
vt 0.355392 0.144608
vt 0.355392 0.022059
vt 0.477942 0.022059
vt 0.977941 0.688725
vt 0.977941 0.811274
vt 0.855392 0.811274
vt 0.855392 0.688725
vt 0.854947 0.855840
vt 0.977493 0.854947
vt 0.978386 0.977493
vt 0.855840 0.978386
vt 0.311275 0.144608
vt 0.188728 0.144608
vt 0.188728 0.022059
vt 0.311275 0.022059
vt 0.311275 0.477941
vt 0.188728 0.477941
vt 0.188728 0.355392
vt 0.311275 0.355392
vt 0.144608 0.144608
vt 0.022060 0.144608
vt 0.022060 0.022059
vt 0.144608 0.022059
vt 0.144608 0.477941
vt 0.022060 0.477941
vt 0.022060 0.355392
vt 0.144608 0.355392
vt 0.022059 0.688725
vt 0.144608 0.688725
vt 0.144608 0.811274
vt 0.022059 0.811274
vt 0.689489 0.145361
vt 0.687972 0.022822
vt 0.810512 0.021305
vt 0.812028 0.143845
vn 0.0000 -0.0000 1.0000
vn -1.0000 0.0000 0.0000
vn 0.0000 0.0000 -1.0000
vn 1.0000 -0.0000 0.0000
vn 0.0000 -1.0000 -0.0000
vn 0.0000 1.0000 0.0000
usemtl Materiał.003
s 1
f 1/1/1 2/2/1 3/3/1 4/4/1
f 4/5/2 3/6/2 5/7/2 6/8/2
f 6/9/3 5/10/3 7/11/3 8/12/3
f 8/13/4 7/14/4 2/15/4 1/16/4
f 4/17/5 6/18/5 8/19/5 1/20/5
f 5/21/6 3/22/6 2/23/6 7/24/6
f 9/25/1 10/26/1 11/27/1 12/28/1
f 12/29/2 11/30/2 13/31/2 14/32/2
f 14/33/3 13/34/3 15/35/3 16/36/3
f 16/37/4 15/38/4 10/39/4 9/40/4
f 12/41/5 14/42/5 16/43/5 9/44/5
f 13/45/6 11/46/6 10/47/6 15/48/6
f 17/49/1 18/50/1 19/51/1 20/52/1
f 20/53/2 19/54/2 21/55/2 22/56/2
f 22/57/3 21/58/3 23/59/3 24/60/3
f 24/61/4 23/62/4 18/63/4 17/64/4
f 20/65/5 22/66/5 24/67/5 17/68/5
f 21/69/6 19/70/6 18/71/6 23/72/6
f 25/73/1 26/74/1 27/75/1 28/76/1
f 28/77/2 27/78/2 29/79/2 30/80/2
f 30/81/3 29/82/3 31/83/3 32/84/3
f 32/85/4 31/86/4 26/87/4 25/88/4
f 28/89/5 30/90/5 32/91/5 25/92/5
f 29/93/6 27/94/6 26/95/6 31/96/6
f 33/97/1 34/98/1 35/99/1 36/100/1
f 36/101/2 35/102/2 37/103/2 38/104/2
f 38/105/3 37/106/3 39/107/3 40/108/3
f 40/109/4 39/110/4 34/111/4 33/112/4
f 36/113/5 38/114/5 40/115/5 33/116/5
f 37/117/6 35/118/6 34/119/6 39/120/6
f 41/121/1 42/122/1 43/123/1 44/124/1
f 44/125/2 43/126/2 45/127/2 46/128/2
f 46/129/3 45/130/3 47/131/3 48/132/3
f 48/133/4 47/134/4 42/135/4 41/136/4
f 44/137/5 46/138/5 48/139/5 41/140/5
f 45/141/6 43/142/6 42/143/6 47/144/6
f 49/145/1 50/146/1 51/147/1 52/148/1
f 52/149/2 51/150/2 53/151/2 54/152/2
f 54/153/3 53/154/3 55/155/3 56/156/3
f 56/157/4 55/158/4 50/159/4 49/160/4
f 52/161/5 54/162/5 56/163/5 49/164/5
f 53/165/6 51/166/6 50/167/6 55/168/6
f 57/169/1 58/170/1 59/171/1 60/172/1
f 60/173/2 59/174/2 61/175/2 62/176/2
f 62/177/3 61/178/3 63/179/3 64/180/3
f 64/181/4 63/182/4 58/183/4 57/184/4
f 60/185/5 62/186/5 64/187/5 57/188/5
f 61/189/6 59/190/6 58/191/6 63/192/6
f 65/193/1 66/194/1 67/195/1 68/196/1
f 68/197/2 67/198/2 69/199/2 70/200/2
f 70/201/3 69/202/3 71/203/3 72/204/3
f 72/205/4 71/206/4 66/207/4 65/208/4
f 68/209/5 70/210/5 72/211/5 65/212/5
f 69/213/6 67/214/6 66/215/6 71/216/6
f 73/217/1 74/218/1 75/219/1 76/220/1
f 76/221/2 75/222/2 77/223/2 78/224/2
f 78/225/3 77/226/3 79/227/3 80/228/3
f 80/229/4 79/230/4 74/231/4 73/232/4
f 76/233/5 78/234/5 80/235/5 73/236/5
f 77/237/6 75/238/6 74/239/6 79/240/6
f 81/241/1 82/242/1 83/243/1 84/244/1
f 84/245/2 83/246/2 85/247/2 86/248/2
f 86/249/3 85/250/3 87/251/3 88/252/3
f 88/253/4 87/254/4 82/255/4 81/256/4
f 84/257/5 86/258/5 88/259/5 81/260/5
f 85/261/6 83/262/6 82/263/6 87/264/6
f 89/265/1 90/266/1 91/267/1 92/268/1
f 92/269/2 91/270/2 93/271/2 94/272/2
f 94/273/3 93/274/3 95/275/3 96/276/3
f 96/277/4 95/278/4 90/279/4 89/280/4
f 92/281/5 94/282/5 96/283/5 89/284/5
f 93/285/6 91/286/6 90/287/6 95/288/6
usemtl Materiał.005
f 97/289/1 98/290/1 99/291/1 100/292/1
f 100/293/2 99/294/2 101/295/2 102/296/2
f 102/297/3 101/298/3 103/299/3 104/300/3
f 104/301/4 103/302/4 98/303/4 97/304/4
f 100/305/5 102/306/5 104/307/5 97/308/5
f 101/309/6 99/310/6 98/311/6 103/312/6
f 105/313/1 106/314/1 107/315/1 108/316/1
f 108/317/2 107/318/2 109/319/2 110/320/2
f 110/321/3 109/322/3 111/323/3 112/324/3
f 112/325/4 111/326/4 106/327/4 105/328/4
f 108/329/5 110/330/5 112/331/5 105/332/5
f 109/333/6 107/334/6 106/335/6 111/336/6
f 113/337/1 114/338/1 115/339/1 116/340/1
f 116/341/2 115/342/2 117/343/2 118/344/2
f 118/345/3 117/346/3 119/347/3 120/348/3
f 120/349/4 119/350/4 114/351/4 113/352/4
f 116/353/5 118/354/5 120/355/5 113/356/5
f 117/357/6 115/358/6 114/359/6 119/360/6
f 121/361/1 122/362/1 123/363/1 124/364/1
f 124/365/2 123/366/2 125/367/2 126/368/2
f 126/369/3 125/370/3 127/371/3 128/372/3
f 128/373/4 127/374/4 122/375/4 121/376/4
f 124/377/5 126/378/5 128/379/5 121/380/5
f 125/381/6 123/382/6 122/383/6 127/384/6
f 129/385/1 130/386/1 131/387/1 132/388/1
f 132/389/2 131/390/2 133/391/2 134/392/2
f 134/393/3 133/394/3 135/395/3 136/396/3
f 136/397/4 135/398/4 130/399/4 129/400/4
f 132/401/5 134/402/5 136/403/5 129/404/5
f 133/405/6 131/406/6 130/407/6 135/408/6
f 137/409/1 138/410/1 139/411/1 140/412/1
f 140/413/2 139/414/2 141/415/2 142/416/2
f 142/417/3 141/418/3 143/419/3 144/420/3
f 144/421/4 143/422/4 138/423/4 137/424/4
f 140/425/5 142/426/5 144/427/5 137/428/5
f 141/429/6 139/430/6 138/431/6 143/432/6
f 145/433/1 146/434/1 147/435/1 148/436/1
f 148/437/2 147/438/2 149/439/2 150/440/2
f 150/441/3 149/442/3 151/443/3 152/444/3
f 152/445/4 151/446/4 146/447/4 145/448/4
f 148/449/5 150/450/5 152/451/5 145/452/5
f 149/453/6 147/454/6 146/455/6 151/456/6
f 153/457/1 154/458/1 155/459/1 156/460/1
f 156/461/2 155/462/2 157/463/2 158/464/2
f 158/465/3 157/466/3 159/467/3 160/468/3
f 160/469/4 159/470/4 154/471/4 153/472/4
f 156/473/5 158/474/5 160/475/5 153/476/5
f 157/477/6 155/478/6 154/479/6 159/480/6
f 161/481/1 162/482/1 163/483/1 164/484/1
f 164/485/2 163/486/2 165/487/2 166/488/2
f 166/489/3 165/490/3 167/491/3 168/492/3
f 168/493/4 167/494/4 162/495/4 161/496/4
f 164/497/5 166/498/5 168/499/5 161/500/5
f 165/501/6 163/502/6 162/503/6 167/504/6
f 169/505/1 170/506/1 171/507/1 172/508/1
f 172/509/2 171/510/2 173/511/2 174/512/2
f 174/513/3 173/514/3 175/515/3 176/516/3
f 176/517/4 175/518/4 170/519/4 169/520/4
f 172/521/5 174/522/5 176/523/5 169/524/5
f 173/525/6 171/526/6 170/527/6 175/528/6
f 177/529/1 178/530/1 179/531/1 180/532/1
f 180/533/2 179/534/2 181/535/2 182/536/2
f 182/537/3 181/538/3 183/539/3 184/540/3
f 184/541/4 183/542/4 178/543/4 177/544/4
f 180/545/5 182/546/5 184/547/5 177/548/5
f 181/549/6 179/550/6 178/551/6 183/552/6
f 185/553/1 186/554/1 187/555/1 188/556/1
f 188/557/2 187/558/2 189/559/2 190/560/2
f 190/561/3 189/562/3 191/563/3 192/564/3
f 192/565/4 191/566/4 186/567/4 185/568/4
f 188/569/5 190/570/5 192/571/5 185/572/5
f 189/573/6 187/574/6 186/575/6 191/576/6
