# Blender v3.0.0 OBJ File: ''
# www.blender.org
mtllib drzwiFRAME.mtl
o Kostka.017
v -0.421165 -0.623759 0.061050
v -0.421165 0.667227 0.061050
v -0.421165 0.667227 -0.061050
v -0.421165 -0.623759 -0.061050
v 0.320437 -0.623759 -0.061050
v 0.320437 0.667227 -0.061050
v 0.320437 0.667227 0.061050
v 0.320437 -0.623759 0.061050
v -0.402812 -0.591810 0.061050
v -0.402812 -0.591810 -0.061050
v -0.402812 0.635278 -0.061050
v -0.402812 0.635278 0.061050
v 0.302084 -0.591810 -0.061050
v 0.302084 -0.591810 0.061050
v 0.302084 0.635278 0.061050
v 0.302084 0.635278 -0.061050
vt 0.433415 0.916919
vt 0.433415 0.852708
vt 0.445256 0.852708
vt 0.445256 0.916919
vt 0.433415 0.852708
vt 0.433415 0.916919
vt 0.421575 0.916919
vt 0.421575 0.852708
vt 0.457096 0.913741
vt 0.457096 0.950626
vt 0.445256 0.950626
vt 0.445256 0.913741
vt 0.468937 0.913741
vt 0.468937 0.950626
vt 0.457096 0.950626
vt 0.457096 0.913741
vt 0.457096 0.852708
vt 0.468937 0.852708
vt 0.468937 0.913741
vt 0.457096 0.913741
vt 0.457096 0.913741
vt 0.445256 0.913741
vt 0.445256 0.852708
vt 0.457096 0.852708
vt 0.301424 0.951979
vt 0.289583 0.951979
vt 0.289583 0.916919
vt 0.301424 0.916919
vt 0.289583 0.951979
vt 0.277743 0.951979
vt 0.277743 0.916919
vt 0.289583 0.916919
vt 0.349659 0.852708
vt 0.349659 0.916919
vt 0.347879 0.915330
vt 0.347879 0.854297
vt 0.349659 0.916919
vt 0.349659 0.852708
vt 0.351438 0.854297
vt 0.351438 0.915330
vt 0.421575 0.916919
vt 0.419795 0.915330
vt 0.421575 0.852708
vt 0.419795 0.854297
vt 0.277743 0.916919
vt 0.277743 0.852708
vt 0.279522 0.854297
vt 0.279522 0.915330
vn -1.0000 0.0000 0.0000
vn 1.0000 -0.0000 0.0000
vn 0.0000 -1.0000 0.0000
vn 0.0000 1.0000 0.0000
vn 0.0000 -0.0000 1.0000
vn 0.0000 0.0000 -1.0000
usemtl Materiał.002
s 1
f 1/1/1 2/2/1 3/3/1 4/4/1
f 5/5/2 6/6/2 7/7/2 8/8/2
f 4/9/3 5/10/3 8/11/3 1/12/3
f 6/13/4 3/14/4 2/15/4 7/16/4
f 9/17/2 10/18/2 11/19/2 12/20/2
f 13/21/1 14/22/1 15/23/1 16/24/1
f 10/25/4 9/26/4 14/27/4 13/28/4
f 16/29/3 15/30/3 12/31/3 11/32/3
f 2/33/5 1/34/5 9/35/5 12/36/5
f 4/37/6 3/38/6 11/39/6 10/40/6
f 5/41/6 4/37/6 10/40/6 13/42/6
f 3/38/6 6/43/6 16/44/6 11/39/6
f 6/43/6 5/41/6 13/42/6 16/44/6
f 8/45/5 7/46/5 15/47/5 14/48/5
f 1/34/5 8/45/5 14/48/5 9/35/5
f 7/46/5 2/33/5 12/36/5 15/47/5
o Walec.004
v -0.397730 0.454276 -0.018325
v -0.397730 0.516818 -0.018325
v -0.395364 0.516818 -0.018092
v -0.395364 0.454276 -0.018092
v -0.393089 0.516818 -0.017402
v -0.393089 0.454276 -0.017402
v -0.390992 0.516818 -0.016281
v -0.390992 0.454276 -0.016281
v -0.389155 0.516818 -0.014773
v -0.389155 0.454276 -0.014773
v -0.387646 0.516818 -0.012935
v -0.387646 0.454276 -0.012935
v -0.386526 0.516818 -0.010839
v -0.386526 0.454276 -0.010839
v -0.385836 0.516818 -0.008564
v -0.385836 0.454276 -0.008564
v -0.385603 0.516818 -0.006198
v -0.385603 0.454276 -0.006198
v -0.385836 0.516818 -0.003832
v -0.385836 0.454276 -0.003832
v -0.386526 0.516818 -0.001557
v -0.386526 0.454276 -0.001557
v -0.387646 0.516818 0.000540
v -0.387646 0.454276 0.000540
v -0.389155 0.516818 0.002378
v -0.389155 0.454276 0.002378
v -0.390992 0.516818 0.003886
v -0.390992 0.454276 0.003886
v -0.393089 0.516818 0.005007
v -0.393089 0.454276 0.005007
v -0.395364 0.516818 0.005697
v -0.395364 0.454276 0.005697
v -0.397730 0.516818 0.005930
v -0.397730 0.454276 0.005930
v -0.400096 0.516818 0.005697
v -0.400096 0.454276 0.005697
v -0.402371 0.516818 0.005007
v -0.402371 0.454276 0.005007
v -0.404468 0.516818 0.003886
v -0.404468 0.454276 0.003886
v -0.406306 0.516818 0.002378
v -0.406306 0.454276 0.002378
v -0.407814 0.516818 0.000540
v -0.407814 0.454276 0.000540
v -0.408935 0.516818 -0.001557
v -0.408935 0.454276 -0.001557
v -0.409625 0.516818 -0.003832
v -0.409625 0.454276 -0.003832
v -0.409858 0.516818 -0.006198
v -0.409858 0.454276 -0.006198
v -0.409625 0.516818 -0.008564
v -0.409625 0.454276 -0.008564
v -0.408935 0.516818 -0.010839
v -0.408935 0.454276 -0.010839
v -0.407814 0.516818 -0.012935
v -0.407814 0.454276 -0.012935
v -0.406306 0.516818 -0.014773
v -0.406306 0.454276 -0.014773
v -0.404468 0.516818 -0.016281
v -0.404468 0.454276 -0.016281
v -0.402371 0.516818 -0.017402
v -0.402371 0.454276 -0.017402
v -0.400096 0.516818 -0.018092
v -0.400096 0.454276 -0.018092
v -0.397730 -0.396286 -0.018325
v -0.397730 -0.333744 -0.018325
v -0.395364 -0.333744 -0.018092
v -0.395364 -0.396286 -0.018092
v -0.393089 -0.333744 -0.017402
v -0.393089 -0.396286 -0.017402
v -0.390992 -0.333744 -0.016281
v -0.390992 -0.396286 -0.016281
v -0.389155 -0.333744 -0.014773
v -0.389155 -0.396286 -0.014773
v -0.387646 -0.333744 -0.012935
v -0.387646 -0.396286 -0.012935
v -0.386526 -0.333744 -0.010839
v -0.386526 -0.396286 -0.010839
v -0.385836 -0.333744 -0.008564
v -0.385836 -0.396286 -0.008564
v -0.385603 -0.333744 -0.006198
v -0.385603 -0.396286 -0.006198
v -0.385836 -0.333744 -0.003832
v -0.385836 -0.396286 -0.003832
v -0.386526 -0.333744 -0.001557
v -0.386526 -0.396286 -0.001557
v -0.387646 -0.333744 0.000540
v -0.387646 -0.396286 0.000540
v -0.389155 -0.333744 0.002378
v -0.389155 -0.396286 0.002378
v -0.390992 -0.333744 0.003886
v -0.390992 -0.396286 0.003886
v -0.393089 -0.333744 0.005007
v -0.393089 -0.396286 0.005007
v -0.395364 -0.333744 0.005697
v -0.395364 -0.396286 0.005697
v -0.397730 -0.333744 0.005930
v -0.397730 -0.396286 0.005930
v -0.400096 -0.333744 0.005697
v -0.400096 -0.396286 0.005697
v -0.402371 -0.333744 0.005007
v -0.402371 -0.396286 0.005007
v -0.404468 -0.333744 0.003886
v -0.404468 -0.396286 0.003886
v -0.406306 -0.333744 0.002378
v -0.406306 -0.396286 0.002378
v -0.407814 -0.333744 0.000540
v -0.407814 -0.396286 0.000540
v -0.408935 -0.333744 -0.001557
v -0.408935 -0.396286 -0.001557
v -0.409625 -0.333744 -0.003832
v -0.409625 -0.396286 -0.003832
v -0.409858 -0.333744 -0.006198
v -0.409858 -0.396286 -0.006198
v -0.409625 -0.333744 -0.008564
v -0.409625 -0.396286 -0.008564
v -0.408935 -0.333744 -0.010839
v -0.408935 -0.396286 -0.010839
v -0.407814 -0.333744 -0.012935
v -0.407814 -0.396286 -0.012935
v -0.406306 -0.333744 -0.014773
v -0.406306 -0.396286 -0.014773
v -0.404468 -0.333744 -0.016281
v -0.404468 -0.396286 -0.016281
v -0.402371 -0.333744 -0.017402
v -0.402371 -0.396286 -0.017402
v -0.400096 -0.333744 -0.018092
v -0.400096 -0.396286 -0.018092
vt 0.093933 0.863747
vt 0.093933 0.906250
vt 0.092317 0.906250
vt 0.092317 0.863747
vt 0.090733 0.906250
vt 0.090733 0.863747
vt 0.089240 0.906250
vt 0.089240 0.863747
vt 0.087897 0.906250
vt 0.087897 0.863747
vt 0.086754 0.906250
vt 0.086754 0.863747
vt 0.124980 0.863747
vt 0.124980 0.906250
vt 0.123838 0.906250
vt 0.123838 0.863747
vt 0.122495 0.906250
vt 0.122495 0.863747
vt 0.121002 0.906250
vt 0.121002 0.863747
vt 0.119417 0.906250
vt 0.119417 0.863747
vt 0.117802 0.906250
vt 0.117802 0.863747
vt 0.116217 0.906250
vt 0.116217 0.863747
vt 0.114724 0.906250
vt 0.114724 0.863747
vt 0.113381 0.906250
vt 0.113381 0.863747
vt 0.112238 0.906250
vt 0.112238 0.863747
vt 0.135438 0.906250
vt 0.135438 0.863747
vt 0.136781 0.863747
vt 0.136781 0.906250
vt 0.138274 0.863747
vt 0.138274 0.906250
vt 0.139858 0.863747
vt 0.139858 0.906250
vt 0.141474 0.863747
vt 0.141474 0.906250
vt 0.143059 0.863747
vt 0.143059 0.906250
vt 0.144552 0.863747
vt 0.144552 0.906250
vt 0.145895 0.863747
vt 0.145895 0.906250
vt 0.099496 0.948753
vt 0.099496 0.906250
vt 0.100840 0.906250
vt 0.100840 0.948753
vt 0.102333 0.906250
vt 0.102333 0.948753
vt 0.103917 0.906250
vt 0.103917 0.948753
vt 0.105533 0.906250
vt 0.105533 0.948753
vt 0.107118 0.906250
vt 0.107118 0.948753
vt 0.108610 0.906250
vt 0.108610 0.948753
vt 0.109953 0.906250
vt 0.109953 0.948753
vt 0.099496 0.863747
vt 0.099496 0.906250
vt 0.098354 0.906250
vt 0.098354 0.863747
vt 0.097010 0.906250
vt 0.097010 0.863747
vt 0.088902 0.922969
vt 0.090486 0.922654
vt 0.092102 0.922654
vt 0.093687 0.922969
vt 0.095180 0.923588
vt 0.096523 0.924485
vt 0.097665 0.925628
vt 0.098563 0.926971
vt 0.099181 0.928463
vt 0.099496 0.930048
vt 0.099496 0.931664
vt 0.099181 0.933248
vt 0.098563 0.934741
vt 0.097665 0.936085
vt 0.096523 0.937227
vt 0.095179 0.938125
vt 0.093687 0.938743
vt 0.092102 0.939058
vt 0.090486 0.939058
vt 0.088902 0.938743
vt 0.087409 0.938124
vt 0.086066 0.937227
vt 0.084923 0.936084
vt 0.084026 0.934741
vt 0.083408 0.933248
vt 0.083092 0.931663
vt 0.083092 0.930048
vt 0.083408 0.928463
vt 0.084025 0.926971
vt 0.084924 0.925627
vt 0.086066 0.924485
vt 0.087409 0.923587
vt 0.095518 0.906250
vt 0.095518 0.863747
vt 0.092102 0.906250
vt 0.093687 0.906565
vt 0.095180 0.907183
vt 0.096523 0.908081
vt 0.097665 0.909223
vt 0.098563 0.910567
vt 0.099181 0.912059
vt 0.099496 0.913644
vt 0.099496 0.915259
vt 0.099181 0.916844
vt 0.098563 0.918337
vt 0.097666 0.919680
vt 0.096523 0.920823
vt 0.095180 0.921720
vt 0.093687 0.922339
vt 0.092103 0.922654
vt 0.090487 0.922654
vt 0.088902 0.922339
vt 0.087410 0.921721
vt 0.086066 0.920823
vt 0.084924 0.919681
vt 0.084026 0.918337
vt 0.083408 0.916844
vt 0.083092 0.915260
vt 0.083092 0.913644
vt 0.083408 0.912059
vt 0.084026 0.910567
vt 0.084924 0.909224
vt 0.086066 0.908081
vt 0.087409 0.907184
vt 0.088902 0.906565
vt 0.090487 0.906250
vt 0.081191 0.863747
vt 0.081191 0.906250
vt 0.079575 0.906250
vt 0.079575 0.863747
vt 0.077990 0.906250
vt 0.077990 0.863747
vt 0.076497 0.906250
vt 0.076497 0.863747
vt 0.075155 0.906250
vt 0.075155 0.863747
vt 0.074012 0.906250
vt 0.074012 0.863747
vt 0.112238 0.863747
vt 0.112238 0.906250
vt 0.111096 0.906250
vt 0.111096 0.863747
vt 0.109753 0.906250
vt 0.109753 0.863747
vt 0.108260 0.906250
vt 0.108260 0.863747
vt 0.106675 0.906250
vt 0.106675 0.863747
vt 0.105060 0.906250
vt 0.105060 0.863747
vt 0.103475 0.906250
vt 0.103475 0.863747
vt 0.101982 0.906250
vt 0.101982 0.863747
vt 0.100639 0.906250
vt 0.100639 0.863747
vt 0.099496 0.906250
vt 0.099496 0.863747
vt 0.124980 0.906250
vt 0.124980 0.863747
vt 0.126324 0.863747
vt 0.126324 0.906250
vt 0.127816 0.863747
vt 0.127816 0.906250
vt 0.129401 0.863747
vt 0.129401 0.906250
vt 0.131017 0.863747
vt 0.131017 0.906250
vt 0.132602 0.863747
vt 0.132602 0.906250
vt 0.134094 0.863747
vt 0.134094 0.906250
vt 0.135438 0.863747
vt 0.135438 0.906250
vt 0.145895 0.906250
vt 0.145895 0.863747
vt 0.147238 0.863747
vt 0.147238 0.906250
vt 0.148731 0.863747
vt 0.148731 0.906250
vt 0.150316 0.863747
vt 0.150316 0.906250
vt 0.151931 0.863747
vt 0.151931 0.906250
vt 0.153516 0.863747
vt 0.153516 0.906250
vt 0.155008 0.863747
vt 0.155008 0.906250
vt 0.156352 0.863747
vt 0.156352 0.906250
vt 0.086754 0.863747
vt 0.086754 0.906250
vt 0.085611 0.906250
vt 0.085611 0.863747
vt 0.084268 0.906250
vt 0.084268 0.863747
vt 0.133751 0.906250
vt 0.135367 0.906250
vt 0.136951 0.906565
vt 0.138444 0.907183
vt 0.139788 0.908081
vt 0.140930 0.909223
vt 0.141828 0.910567
vt 0.142446 0.912059
vt 0.142761 0.913644
vt 0.142761 0.915259
vt 0.142446 0.916844
vt 0.141828 0.918337
vt 0.140930 0.919680
vt 0.139788 0.920823
vt 0.138445 0.921720
vt 0.136952 0.922339
vt 0.135367 0.922654
vt 0.133751 0.922654
vt 0.132167 0.922339
vt 0.130674 0.921721
vt 0.129330 0.920823
vt 0.128189 0.919681
vt 0.127290 0.918337
vt 0.126673 0.916844
vt 0.126357 0.915260
vt 0.126357 0.913644
vt 0.126673 0.912059
vt 0.127291 0.910567
vt 0.128188 0.909224
vt 0.129331 0.908081
vt 0.130674 0.907184
vt 0.132167 0.906565
vt 0.082775 0.906250
vt 0.082775 0.863747
vt 0.117348 0.906250
vt 0.118964 0.906250
vt 0.120548 0.906565
vt 0.122041 0.907184
vt 0.123384 0.908081
vt 0.124527 0.909224
vt 0.125424 0.910567
vt 0.126042 0.912059
vt 0.126357 0.913644
vt 0.126357 0.915260
vt 0.126042 0.916844
vt 0.125425 0.918337
vt 0.124526 0.919681
vt 0.123384 0.920823
vt 0.122041 0.921721
vt 0.120548 0.922339
vt 0.118964 0.922654
vt 0.117348 0.922654
vt 0.115763 0.922339
vt 0.114270 0.921720
vt 0.112927 0.920823
vt 0.111785 0.919680
vt 0.110887 0.918337
vt 0.110269 0.916844
vt 0.109953 0.915259
vt 0.109953 0.913644
vt 0.110268 0.912059
vt 0.110887 0.910567
vt 0.111785 0.909223
vt 0.112927 0.908081
vt 0.114271 0.907183
vt 0.115763 0.906565
vn 0.0980 0.0000 -0.9952
vn 0.2902 0.0000 -0.9570
vn 0.4714 0.0000 -0.8819
vn 0.6345 0.0000 -0.7729
vn 0.7729 -0.0000 -0.6345
vn 0.8820 -0.0000 -0.4713
vn 0.9570 0.0000 -0.2902
vn 0.9952 0.0000 -0.0980
vn 0.9952 0.0000 0.0980
vn 0.9570 -0.0000 0.2902
vn 0.8821 -0.0000 0.4711
vn 0.7731 -0.0000 0.6343
vn 0.6345 -0.0000 0.7729
vn 0.4714 -0.0000 0.8819
vn 0.2902 -0.0000 0.9570
vn 0.0980 -0.0000 0.9952
vn -0.0980 -0.0000 0.9952
vn -0.2902 -0.0000 0.9570
vn -0.4714 -0.0000 0.8819
vn -0.6343 -0.0000 0.7731
vn -0.7731 0.0000 0.6343
vn -0.8819 0.0000 0.4714
vn -0.9570 0.0000 0.2902
vn -0.9952 -0.0000 0.0980
vn -0.9952 -0.0000 -0.0980
vn -0.9570 0.0000 -0.2902
vn -0.8818 0.0000 -0.4716
vn -0.7731 0.0000 -0.6343
vn -0.6343 0.0000 -0.7731
vn -0.4714 0.0000 -0.8819
vn 0.0000 1.0000 0.0000
vn -0.2902 0.0000 -0.9570
vn -0.0980 0.0000 -0.9952
vn 0.0000 -1.0000 0.0000
vn 0.7729 0.0000 0.6345
usemtl Materiał.028
s off
f 17/49/7 18/50/7 19/51/7 20/52/7
f 20/52/8 19/51/8 21/53/8 22/54/8
f 22/54/9 21/53/9 23/55/9 24/56/9
f 24/56/10 23/55/10 25/57/10 26/58/10
f 26/58/11 25/57/11 27/59/11 28/60/11
f 28/61/12 27/62/12 29/63/12 30/64/12
f 30/64/13 29/63/13 31/65/13 32/66/13
f 32/66/14 31/65/14 33/67/14 34/68/14
f 34/68/15 33/67/15 35/69/15 36/70/15
f 36/70/16 35/69/16 37/71/16 38/72/16
f 38/72/17 37/71/17 39/73/17 40/74/17
f 40/74/18 39/73/18 41/75/18 42/76/18
f 42/76/19 41/75/19 43/77/19 44/78/19
f 44/78/20 43/77/20 45/79/20 46/80/20
f 46/81/21 45/82/21 47/83/21 48/84/21
f 48/84/22 47/83/22 49/85/22 50/86/22
f 50/86/23 49/85/23 51/87/23 52/88/23
f 52/88/24 51/87/24 53/89/24 54/90/24
f 54/90/25 53/89/25 55/91/25 56/92/25
f 56/92/26 55/91/26 57/93/26 58/94/26
f 58/94/27 57/93/27 59/95/27 60/96/27
f 60/97/28 59/98/28 61/99/28 62/100/28
f 62/100/29 61/99/29 63/101/29 64/102/29
f 64/102/30 63/101/30 65/103/30 66/104/30
f 66/104/31 65/103/31 67/105/31 68/106/31
f 68/106/32 67/105/32 69/107/32 70/108/32
f 70/108/33 69/107/33 71/109/33 72/110/33
f 72/110/34 71/109/34 73/111/34 74/112/34
f 74/113/35 73/114/35 75/115/35 76/116/35
f 76/116/36 75/115/36 77/117/36 78/118/36
f 19/119/37 18/120/37 79/121/37 77/122/37 75/123/37 73/124/37 71/125/37 69/126/37 67/127/37 65/128/37 63/129/37 61/130/37 59/131/37 57/132/37 55/133/37 53/134/37 51/135/37 49/136/37 47/137/37 45/138/37 43/139/37 41/140/37 39/141/37 37/142/37 35/143/37 33/144/37 31/145/37 29/146/37 27/147/37 25/148/37 23/149/37 21/150/37
f 78/118/38 77/117/38 79/151/38 80/152/38
f 80/152/39 79/151/39 18/50/39 17/49/39
f 17/153/40 20/154/40 22/155/40 24/156/40 26/157/40 28/158/40 30/159/40 32/160/40 34/161/40 36/162/40 38/163/40 40/164/40 42/165/40 44/166/40 46/167/40 48/168/40 50/169/40 52/170/40 54/171/40 56/172/40 58/173/40 60/174/40 62/175/40 64/176/40 66/177/40 68/178/40 70/179/40 72/180/40 74/181/40 76/182/40 78/183/40 80/184/40
f 81/185/7 82/186/7 83/187/7 84/188/7
f 84/188/8 83/187/8 85/189/8 86/190/8
f 86/190/9 85/189/9 87/191/9 88/192/9
f 88/192/10 87/191/10 89/193/10 90/194/10
f 90/194/11 89/193/11 91/195/11 92/196/11
f 92/197/12 91/198/12 93/199/12 94/200/12
f 94/200/13 93/199/13 95/201/13 96/202/13
f 96/202/14 95/201/14 97/203/14 98/204/14
f 98/204/15 97/203/15 99/205/15 100/206/15
f 100/206/16 99/205/16 101/207/16 102/208/16
f 102/208/17 101/207/17 103/209/17 104/210/17
f 104/210/41 103/209/41 105/211/41 106/212/41
f 106/212/19 105/211/19 107/213/19 108/214/19
f 108/214/20 107/213/20 109/215/20 110/216/20
f 110/217/21 109/218/21 111/219/21 112/220/21
f 112/220/22 111/219/22 113/221/22 114/222/22
f 114/222/23 113/221/23 115/223/23 116/224/23
f 116/224/24 115/223/24 117/225/24 118/226/24
f 118/226/25 117/225/25 119/227/25 120/228/25
f 120/228/26 119/227/26 121/229/26 122/230/26
f 122/230/27 121/229/27 123/231/27 124/232/27
f 124/233/28 123/234/28 125/235/28 126/236/28
f 126/236/29 125/235/29 127/237/29 128/238/29
f 128/238/30 127/237/30 129/239/30 130/240/30
f 130/240/31 129/239/31 131/241/31 132/242/31
f 132/242/32 131/241/32 133/243/32 134/244/32
f 134/244/33 133/243/33 135/245/33 136/246/33
f 136/246/34 135/245/34 137/247/34 138/248/34
f 138/249/35 137/250/35 139/251/35 140/252/35
f 140/252/36 139/251/36 141/253/36 142/254/36
f 83/255/37 82/256/37 143/257/37 141/258/37 139/259/37 137/260/37 135/261/37 133/262/37 131/263/37 129/264/37 127/265/37 125/266/37 123/267/37 121/268/37 119/269/37 117/270/37 115/271/37 113/272/37 111/273/37 109/274/37 107/275/37 105/276/37 103/277/37 101/278/37 99/279/37 97/280/37 95/281/37 93/282/37 91/283/37 89/284/37 87/285/37 85/286/37
f 142/254/38 141/253/38 143/287/38 144/288/38
f 144/288/39 143/287/39 82/186/39 81/185/39
f 81/289/40 84/290/40 86/291/40 88/292/40 90/293/40 92/294/40 94/295/40 96/296/40 98/297/40 100/298/40 102/299/40 104/300/40 106/301/40 108/302/40 110/303/40 112/304/40 114/305/40 116/306/40 118/307/40 120/308/40 122/309/40 124/310/40 126/311/40 128/312/40 130/313/40 132/314/40 134/315/40 136/316/40 138/317/40 140/318/40 142/319/40 144/320/40
