# Blender v3.0.0 OBJ File: 'wpyte.blend1'
# www.blender.org
mtllib listwa2.mtl
o Kostka.004_Kostka.002
v 1.941299 2.023906 -1.809005
v 1.941299 2.023906 -1.246330
v 1.941299 2.023906 -0.496330
v 1.941300 2.023906 1.003670
v 1.941299 2.023906 -0.683654
v 1.941299 2.023906 -1.996330
v -2.000000 2.023906 -1.939467
v 2.000000 2.023906 -1.939467
v -1.000000 2.023906 -1.939467
v -1.500000 2.023906 -1.939467
v -1.138462 2.023906 -1.939467
v -1.861538 2.023906 -1.939467
v 0.371788 2.023906 -1.666070
v -0.292223 2.023906 -1.948254
v 0.371788 2.023906 -1.948254
v -0.292223 2.023906 -1.666070
v -2.000000 2.023906 0.950229
v 2.000000 2.023906 0.950229
v -1.940608 2.023906 1.003670
v -1.940608 2.023906 -1.996330
v -2.000000 1.961406 0.950229
v 2.000000 1.961406 0.950229
v -1.940608 1.961406 1.003670
v -1.940608 1.961406 -1.996330
v 1.941300 1.958310 1.003670
v 1.941299 1.958310 -1.246330
v 1.941299 1.958310 -0.496330
v 1.941299 1.958310 -0.683654
v 1.941299 1.958310 -1.809005
v 1.941299 1.958310 -1.996330
v -2.000000 1.958336 -1.939467
v -0.292223 1.958335 -1.666071
v -1.138462 1.958336 -1.939467
v 2.000000 1.958336 -1.939467
v -1.861538 1.958336 -1.939467
v -1.500000 1.958336 -1.939467
v -1.000000 1.958336 -1.939467
v -0.292223 1.958336 -1.948254
v 0.371788 1.958335 -1.666071
v 0.371788 1.958336 -1.948254
v 1.971299 2.023906 -1.809005
v 1.971299 2.023906 -1.246330
v 1.971299 2.023906 -0.496330
v 1.971300 2.023906 1.003670
v 1.971299 2.023906 -0.683654
v 1.971299 2.023906 -1.996330
v -2.000000 2.023906 -1.969467
v 2.000000 2.023906 -1.969467
v -1.000000 2.023906 -1.969467
v -1.500000 2.023906 -1.969467
v -1.138462 2.023906 -1.969467
v -1.861538 2.023906 -1.969467
v 0.350575 2.023906 -1.687283
v -0.271010 2.023906 -1.969467
v 0.350575 2.023906 -1.969467
v -0.271010 2.023906 -1.687283
v -2.000000 2.023906 0.980229
v 2.000000 2.023906 0.980229
v -1.970608 2.023906 1.003670
v -1.970608 2.023906 -1.996330
v -2.000000 1.961406 0.980229
v 2.000000 1.961406 0.980229
v -1.970608 1.961406 1.003670
v -1.970608 1.961406 -1.996330
v 1.971300 1.958310 1.003670
v 1.971299 1.958310 -1.246330
v 1.971299 1.958310 -0.496330
v 1.971299 1.958310 -0.683654
v 1.971299 1.958310 -1.809005
v 1.971299 1.958310 -1.996330
v -2.000000 1.958336 -1.969467
v -0.271010 1.958335 -1.687283
v -1.138462 1.958336 -1.969467
v 2.000000 1.958336 -1.969467
v -1.861538 1.958336 -1.969467
v -1.500000 1.958336 -1.969467
v -1.000000 1.958336 -1.969467
v -0.271010 1.958336 -1.969467
v 0.350575 1.958335 -1.687283
v 0.350575 1.958336 -1.969467
vt 0.443663 0.753523
vt 0.342394 0.753523
vt 0.342394 0.749498
vt 0.443663 0.749498
vt 0.525434 0.592007
vt 0.487271 0.592007
vt 0.487271 0.587981
vt 0.525434 0.587981
vt 0.626704 0.868266
vt 0.644029 0.868266
vt 0.644029 0.872292
vt 0.626704 0.872292
vt 0.587981 0.264949
vt 0.584144 0.264949
vt 0.584144 0.019361
vt 0.587981 0.019361
vt 0.749498 0.487862
vt 0.745660 0.487862
vt 0.745660 0.303671
vt 0.749498 0.303671
vt 0.180877 0.587981
vt 0.184905 0.587981
vt 0.184905 0.599483
vt 0.180877 0.599483
vt 0.180877 0.680077
vt 0.184905 0.680077
vt 0.184905 0.772172
vt 0.180877 0.772172
vt 0.180877 0.668576
vt 0.184905 0.668576
vt 0.180877 0.634029
vt 0.184905 0.634029
vt 0.395653 0.587981
vt 0.395653 0.592007
vt 0.387151 0.592007
vt 0.387151 0.587981
vt 0.448548 0.587981
vt 0.448548 0.592007
vt 0.440047 0.592007
vt 0.440047 0.587981
vt 0.417850 0.592007
vt 0.417850 0.587981
vt 0.342394 0.592007
vt 0.342394 0.587981
vt 0.482386 0.749498
vt 0.499711 0.749498
vt 0.499711 0.753524
vt 0.482386 0.753523
vt 0.443663 0.753523
vt 0.443663 0.749498
vt 0.342394 0.749498
vt 0.342394 0.753523
vt 0.525434 0.592007
vt 0.525434 0.587981
vt 0.487271 0.587981
vt 0.487271 0.592007
vt 0.626704 0.868266
vt 0.626704 0.872292
vt 0.644029 0.872292
vt 0.644029 0.868266
vt 0.587981 0.264949
vt 0.587981 0.019361
vt 0.584144 0.019361
vt 0.584144 0.264949
vt 0.749498 0.487862
vt 0.749498 0.303671
vt 0.745660 0.303671
vt 0.745660 0.487862
vt 0.180877 0.587981
vt 0.180877 0.599483
vt 0.184905 0.599483
vt 0.184905 0.587981
vt 0.180877 0.680077
vt 0.180877 0.772172
vt 0.184905 0.772172
vt 0.184905 0.680077
vt 0.180877 0.668576
vt 0.184905 0.668576
vt 0.180877 0.634029
vt 0.184905 0.634029
vt 0.395653 0.587981
vt 0.387151 0.587981
vt 0.387151 0.592007
vt 0.395653 0.592007
vt 0.448548 0.587981
vt 0.440047 0.587981
vt 0.440047 0.592007
vt 0.448548 0.592007
vt 0.417850 0.587981
vt 0.417850 0.592007
vt 0.342394 0.587981
vt 0.342394 0.592007
vt 0.482386 0.749498
vt 0.482386 0.753523
vt 0.499711 0.753524
vt 0.499711 0.749498
vn 0.2998 -0.9052 0.3014
vn 0.5759 -0.5771 0.5790
vn -0.0054 0.0000 1.0000
vn -0.5774 -0.5774 0.5773
vn 0.5774 -0.5774 0.5773
vn 0.0000 -0.0000 1.0000
vn -0.2975 -0.9060 0.3012
vn -1.0000 0.0000 0.0000
vn 0.0000 0.0000 -1.0000
vn 0.5774 -0.5774 -0.5774
vn -0.5774 -0.5774 -0.5774
vn 1.0000 0.0000 0.0000
vn 0.5774 -0.5774 0.5774
vn -0.7071 -0.7071 -0.0000
vn -0.5774 -0.5773 0.5773
vn 0.0000 -0.7071 0.7071
vn 0.0044 -0.7057 0.7085
vn 0.0062 0.0000 1.0000
vn -0.5774 -0.5774 0.5774
vn 0.0124 0.0000 0.9999
vn 0.3015 -0.9045 -0.3015
vn -0.3015 -0.9045 -0.3015
vn 0.5774 -0.5774 -0.5773
vn 0.7071 -0.7071 -0.0000
vn 0.5773 -0.5773 0.5774
vn 0.0000 -0.7071 -0.7071
vn 0.0000 1.0000 0.0000
vn 0.0000 0.7071 0.7071
vn 0.0000 0.7071 -0.7071
vn -0.7071 0.7071 0.0000
vn 0.7083 0.7059 0.0000
vn 0.7071 0.7071 0.0000
usemtl Materiał
s 1
f 40/1/1 34/2/2 8/3/3 15/4/3
f 32/5/4 39/6/5 13/7/6 16/8/6
f 38/9/7 32/10/4 16/11/8 14/12/8
f 18/13/9 22/14/10 21/15/11 17/16/9
f 19/17/12 23/18/13 24/19/10 20/20/12
f 6/21/8 30/22/11 29/23/14 1/24/8
f 3/25/8 27/26/14 25/27/15 4/28/8
f 5/29/8 28/30/14 27/26/14 3/25/8
f 2/31/8 26/32/14 28/30/14 5/29/8
f 1/24/8 29/23/14 26/32/14 2/31/8
f 11/33/6 33/34/16 37/35/17 9/36/18
f 7/37/6 31/38/19 35/39/16 12/40/6
f 12/40/6 35/39/16 36/41/16 10/42/6
f 10/42/6 36/41/16 33/34/16 11/33/6
f 9/36/18 37/35/17 38/43/7 14/44/20
f 15/45/12 13/46/12 39/47/5 40/48/1
f 80/49/11 55/50/9 48/51/9 74/52/10
f 72/53/21 56/54/9 53/55/9 79/56/22
f 78/57/23 54/58/12 56/59/12 72/60/21
f 58/61/6 57/62/6 61/63/4 62/64/5
f 59/65/8 60/66/8 64/67/11 63/68/19
f 46/69/12 41/70/12 69/71/24 70/72/10
f 43/73/12 44/74/12 65/75/25 67/76/24
f 45/77/12 43/73/12 67/76/24 68/78/24
f 42/79/12 45/77/12 68/78/24 66/80/24
f 41/70/12 42/79/12 66/80/24 69/71/24
f 51/81/9 49/82/9 77/83/26 73/84/26
f 47/85/9 52/86/9 75/87/26 71/88/11
f 52/86/9 50/89/9 76/90/26 75/87/26
f 50/89/9 51/81/9 73/84/26 76/90/26
f 49/82/9 54/91/9 78/92/23 77/83/26
f 55/93/8 80/94/11 79/95/22 53/96/8
f 1/24/27 2/31/27 42/79/27 41/70/27
f 3/25/27 4/28/28 44/74/28 43/73/27
f 4/28/28 25/27/15 65/75/25 44/74/28
f 5/29/27 3/25/27 43/73/27 45/77/27
f 6/21/29 1/24/27 41/70/27 46/69/29
f 2/31/27 5/29/27 45/77/27 42/79/27
f 31/38/19 7/37/30 47/85/30 71/88/11
f 15/4/27 8/3/31 48/51/32 55/50/27
f 11/33/27 9/36/27 49/82/27 51/81/27
f 10/42/27 11/33/27 51/81/27 50/89/27
f 12/40/27 10/42/27 50/89/27 52/86/27
f 9/36/27 14/44/27 54/91/27 49/82/27
f 7/37/30 12/40/27 52/86/27 47/85/30
f 14/12/27 16/11/27 56/59/27 54/58/27
f 16/8/27 13/7/27 53/55/27 56/54/27
f 13/46/27 15/45/27 55/93/27 53/96/27
f 18/13/32 17/16/30 57/62/30 58/61/32
f 23/18/13 19/17/28 59/65/28 63/68/19
f 19/17/28 20/20/29 60/66/29 59/65/28
f 17/16/30 21/15/11 61/63/4 57/62/30
f 22/14/10 18/13/32 58/61/32 62/64/5
f 21/15/11 22/14/10 62/64/5 61/63/4
f 20/20/29 24/19/10 64/67/11 60/66/29
f 24/19/10 23/18/13 63/68/19 64/67/11
f 30/22/11 6/21/29 46/69/29 70/72/10
f 29/23/14 30/22/11 70/72/10 69/71/24
f 25/27/15 27/26/14 67/76/24 65/75/25
f 27/26/14 28/30/14 68/78/24 67/76/24
f 28/30/14 26/32/14 66/80/24 68/78/24
f 26/32/14 29/23/14 69/71/24 66/80/24
f 8/3/31 34/2/2 74/52/10 48/51/32
f 37/35/17 33/34/16 73/84/26 77/83/26
f 35/39/16 31/38/19 71/88/11 75/87/26
f 36/41/16 35/39/16 75/87/26 76/90/26
f 33/34/16 36/41/16 76/90/26 73/84/26
f 38/43/7 37/35/17 77/83/26 78/92/23
f 40/48/1 39/47/5 79/95/22 80/94/11
f 32/10/4 38/9/7 78/57/23 72/60/21
f 39/6/5 32/5/4 72/53/21 79/56/22
f 34/2/2 40/1/1 80/49/11 74/52/10
