# Blender v3.0.0 OBJ File: ''
# www.blender.org
mtllib podloga2.mtl
o Kostka.005_Kostka.006
v 2.000237 0.021031 -6.502329
v -1.997184 0.021031 -6.502329
v -1.997184 0.021031 -3.502329
v 0.190857 0.021031 -4.297739
v 2.000237 -0.022503 -6.502329
v 2.000237 0.021031 -3.502329
v 0.001526 0.006916 -3.502329
v -0.248312 -0.008048 -3.502329
v 0.001526 -0.012300 -3.502329
v -0.014089 0.000263 -6.502329
v 0.251365 -0.012300 -3.502329
v -1.997184 -0.022503 -3.502329
v 0.251365 0.008617 -3.502329
v 0.590014 -0.022503 -5.223886
v 2.000237 -0.022503 -3.502329
v -1.997184 -0.022503 -6.502329
v 0.001526 0.021031 -3.502329
vt 1.970750 -0.010952
vt 1.972873 -0.138442
vt 1.965654 -1.030880
vt 2.009138 2.030880
vt 2.030880 0.500000
vt 2.009138 0.500000
vt 2.009138 1.008977
vt 1.998766 -0.002983
vt 1.987396 1.008977
vt 2.030880 0.500000
vt 2.009138 -1.030880
vt 2.009138 0.500000
vt 1.980347 -0.010952
vt 1.987396 -1.030880
vt 0.070141 -0.107566
vt 0.467387 -0.010951
vt 0.467387 -1.030880
vt 2.030880 -1.030880
vt 1.105870 0.289350
vt 1.965654 1.008977
vt 0.467387 1.008977
vt 2.009138 -1.030880
vt 1.987396 -1.030880
vt 0.467387 -1.030880
vt 1.970750 0.116540
vt -1.030880 -1.030880
vt 0.467387 1.008977
vt -1.030880 1.008977
vt 1.987396 -0.010951
vt 1.981196 0.116540
vt 1.987396 1.008977
vt 2.030880 2.030880
vn 0.0000 0.0000 1.0000
vn -0.5773 -0.5774 0.5774
vn -0.5774 0.5774 -0.5774
vn -0.5773 0.5773 0.5774
vn 0.0000 0.0000 -1.0000
vn -0.5773 -0.5773 -0.5774
vn 0.5773 0.5773 -0.5774
vn 0.5773 -0.5773 0.5774
vn 0.5774 -0.5774 -0.5773
vn -0.0000 1.0000 0.0000
vn 0.0000 0.7071 0.7071
vn 0.5774 0.5774 0.5773
vn 0.0000 -1.0000 -0.0000
usemtl Materiał.004
s 1
f 9/1/1 8/2/1 12/3/2
f 2/4/3 12/5/2 3/6/4
f 2/7/3 10/8/5 16/9/6
f 1/10/7 15/11/8 5/12/9
f 7/13/1 3/14/4 8/2/1
f 4/15/10 17/16/11 6/17/12
f 1/10/7 6/18/12 15/11/8
f 14/19/13 15/20/8 12/3/2
f 5/21/9 15/20/8 14/19/13
f 2/7/3 1/22/7 10/8/5
f 10/8/5 1/22/7 5/23/9
f 10/8/5 5/23/9 16/9/6
f 5/21/9 14/19/13 16/24/6
f 12/3/2 15/20/8 11/25/1 9/1/1
f 7/13/1 8/2/1 9/1/1
f 4/15/10 6/17/12 1/26/7
f 3/14/4 12/3/2 8/2/1
f 3/27/4 4/15/10 2/28/3
f 3/27/4 17/16/11 4/15/10
f 17/29/11 7/13/1 13/30/1
f 17/29/11 13/30/1 6/31/12
f 17/29/11 3/14/4 7/13/1
f 11/25/1 15/20/8 6/31/12 13/30/1
f 9/1/1 11/25/1 13/30/1 7/13/1
f 14/19/13 12/3/2 16/24/6
f 2/28/3 4/15/10 1/26/7
f 16/32/6 12/5/2 2/4/3
