# Blender v3.0.0 OBJ File: 'wpyte.blend'
# www.blender.org
mtllib sciany.mtl
o Kostka.004_Kostka.019
v 2.001322 1.523906 1.003670
v 2.001322 1.762843 1.003670
v 1.971299 1.762843 1.003670
v 1.971299 1.523906 1.003670
v 2.001321 2.023906 -1.246330
v 2.001321 2.023906 -1.809005
v 1.971299 2.023906 -1.809005
v 1.971299 2.023906 -1.246330
v 2.001321 1.023906 -1.996330
v 2.001321 0.023906 -1.996330
v 1.971299 0.023906 -1.996330
v 1.971299 1.023906 -1.996330
v 2.001321 0.023906 -0.496330
v 2.001321 0.023906 1.003670
v 1.971299 0.023906 1.003670
v 1.971299 0.023906 -0.496330
v 2.001321 1.023906 -1.246330
v 2.001321 0.023906 -1.246330
v 2.001321 0.023906 -1.809005
v 2.001321 1.023906 -1.809005
v 1.971299 1.023906 -0.496330
v 1.971299 1.023906 1.003670
v 1.971299 1.023906 -1.246330
v 1.971299 0.023906 -1.246330
v 1.971299 0.023906 -0.683654
v 1.971299 1.023906 -0.683654
v 2.001321 1.023906 1.003670
v 2.001321 1.023906 -0.496330
v 2.001321 0.023906 -0.683654
v 2.001322 2.023906 1.003670
v 2.001321 2.023906 -0.496330
v 1.971299 2.023906 -0.496330
v 1.971300 2.023906 1.003670
v 1.971299 0.023906 -1.809005
v 1.971299 1.023906 -1.809005
v 2.001321 1.023906 -0.683654
v 2.001321 2.023906 -0.683654
v 1.971299 2.023906 -0.683654
v 2.001321 2.023906 -1.996330
v 1.971299 2.023906 -1.996330
v 2.001321 1.523906 -1.809005
v 2.001321 1.284969 -1.809005
v 2.001321 1.284969 -1.996330
v 2.001321 1.523906 -1.996330
v 1.971299 1.523906 -0.683654
v 1.971299 1.284969 -0.683654
v 1.971299 1.284969 -0.496330
v 1.971299 1.523906 -0.496330
v 2.001321 1.523906 -0.496330
v 2.001321 1.284969 -0.496330
v 2.001321 1.284969 -0.683654
v 2.001321 1.523906 -0.683654
v 1.971299 1.523906 -1.996330
v 1.971299 1.284969 -1.996330
v 1.971299 1.284969 -1.809005
v 1.971299 1.523906 -1.809005
v 1.971299 1.762843 -1.246330
v 1.971299 1.762843 -1.809005
v 2.001322 1.284969 1.003670
v 1.971299 1.284969 1.003670
v 2.001321 1.762843 -1.996330
v 1.971299 1.762843 -1.996330
v 1.971299 1.762843 -0.496330
v 1.971299 1.284969 -1.246330
v 2.001321 1.762843 -0.496330
v 2.001321 1.762843 -0.683654
v 1.971299 1.762843 -0.683654
v 2.001321 1.762843 -1.809005
v 2.001321 1.284969 -1.246330
v 2.001321 1.762843 -1.246330
v -2.000000 1.746257 -1.969467
v -2.000000 2.023906 -1.969467
v -2.000000 2.023906 -1.999489
v -2.000000 1.746257 -1.999489
v 0.211795 2.023906 -1.969467
v 2.000000 2.023906 -1.969467
v 2.000000 2.023906 -1.999489
v 0.211795 2.023906 -1.999489
v 2.000000 0.184463 -1.969467
v 2.000000 0.023906 -1.969467
v 2.000000 0.023906 -1.999489
v 2.000000 0.184463 -1.999489
v -1.500000 0.023906 -1.969467
v -1.861538 0.023906 -1.969467
v -1.861538 0.023906 -1.999489
v -1.500000 0.023906 -1.999489
v 0.211795 0.023906 -1.969467
v -1.500000 0.184463 -1.999489
v -1.861538 0.184463 -1.999489
v 0.211795 0.184463 -1.999489
v 0.211795 0.023906 -1.999489
v 0.000000 0.023906 -1.999489
v 0.000000 0.184463 -1.999489
v -1.000000 0.184463 -1.969467
v -1.000000 0.023906 -1.969467
v 0.000000 0.023906 -1.969467
v -1.000000 2.023906 -1.969467
v 0.000000 2.023906 -1.969467
v 0.000000 2.023906 -1.999489
v -1.000000 2.023906 -1.999489
v 2.000000 1.746257 -1.999489
v 2.000000 0.345021 -1.999489
v 0.211795 0.345021 -1.999489
v 0.211795 1.746257 -1.999489
v -1.000000 1.746257 -1.969467
v -1.000000 0.345021 -1.969467
v 0.000000 0.345021 -1.999489
v 0.000000 1.746257 -1.999489
v 2.000000 0.345021 -1.969467
v 2.000000 1.746257 -1.969467
v -2.000000 0.184463 -1.969467
v -2.000000 0.345021 -1.969467
v -2.000000 0.345021 -1.999489
v -2.000000 0.184463 -1.999489
v -1.000000 0.345021 -1.999489
v -1.000000 1.746257 -1.999489
v -1.500000 0.345021 -1.969467
v -1.500000 0.345021 -2.083939
v -1.138462 0.345021 -2.083939
v -1.138462 0.345021 -1.969467
v -1.500000 2.023906 -1.969467
v -1.138462 2.023906 -1.969467
v -1.138462 2.023906 -1.999489
v -1.500000 2.023906 -1.999489
v -1.000000 0.184463 -1.957858
v -1.000000 0.345021 -1.957858
v -1.000000 0.023906 -1.999489
v -1.000000 0.184463 -1.999489
v -1.500000 0.023906 -1.957858
v -1.500000 0.023906 -1.760486
v -1.138462 0.023906 -1.760486
v -1.138462 0.023906 -1.957858
v -1.500000 0.345021 -1.957858
v -1.861538 0.345021 -1.957858
v -1.861538 0.345021 -1.969467
v -1.138462 0.023906 -1.969467
v -2.000000 0.184463 -1.957858
v -2.000000 0.023906 -1.957858
v -2.000000 0.023906 -1.969467
v -2.000000 0.345021 -1.957858
v -1.500000 0.184463 -1.957858
v -1.138462 0.184463 -1.957858
v -1.138462 0.345021 -1.957858
v -1.000000 0.023906 -1.957858
v -2.000000 0.023906 -1.999489
v -1.500000 0.345021 -1.999489
v -1.861538 0.345021 -1.999489
v -1.500000 0.184463 -1.760486
v -1.138462 0.184463 -1.760486
v -2.000000 0.184463 -1.760486
v -2.000000 0.023906 -1.760486
v -1.000000 0.023906 -1.760486
v -1.000000 0.184463 -1.760486
v -1.861538 0.184463 -1.760486
v -1.861538 0.184463 -1.957858
v -1.861538 0.023906 -1.760486
v -1.138462 0.345021 -1.999489
v -1.138462 0.184463 -1.999489
v -1.861538 0.023906 -1.957858
v -1.861538 2.023906 -1.969467
v -1.861538 2.023906 -1.999489
v -1.861538 0.345021 -2.083939
v -1.138462 0.023906 -1.999489
v -1.138462 1.746257 -1.999489
v -1.861538 1.746257 -1.969467
v -1.861538 1.746257 -1.999489
v -1.138462 1.746257 -1.969467
v -1.500000 1.746257 -1.999489
v -1.500000 1.746257 -1.969467
v -1.861538 1.746257 -2.083939
v -1.500000 1.746257 -2.083939
v -1.138462 1.746257 -2.083939
v 0.350575 1.746257 -1.687284
v 0.350575 2.023906 -1.687283
v -0.271010 1.746257 -1.969467
v -0.271010 0.184463 -1.687284
v -0.271010 0.345021 -1.969467
v -0.271010 0.184463 -1.969467
v -0.271010 2.023906 -1.969467
v -0.271010 0.345021 -1.687284
v -0.271010 1.746257 -1.687284
v -0.271010 0.023906 -1.969467
v 0.350575 0.184463 -1.969467
v 0.350575 0.023906 -1.969467
v 0.350575 2.023906 -1.969467
v 0.350575 1.746257 -1.969467
v -0.271010 2.023906 -1.687283
v 0.350575 0.345021 -1.969467
v 0.350575 0.345021 -1.687284
v -0.271010 0.023906 -1.687284
v 0.350575 0.023906 -1.687284
v 0.350575 0.184463 -1.687284
v -2.000000 0.023906 1.010251
v -2.000000 2.023906 1.010251
v -2.000000 2.023906 0.980229
v -2.000000 0.023906 0.980229
v 2.000000 2.023906 1.010251
v 2.000000 2.023906 0.980229
v 2.000000 0.023906 1.010251
v 2.000000 0.023906 0.980229
v -1.970608 0.023906 1.003670
v -1.970608 2.023906 1.003670
v -2.000630 2.023906 1.003670
v -2.000630 0.023906 1.003670
v -1.970608 2.023906 -1.996330
v -2.000630 2.023906 -1.996330
v -1.970608 0.023906 -1.996330
v -2.000630 0.023906 -1.996330
vt -0.011729 1.131570
vt -0.011729 1.069083
vt -0.003878 1.069083
vt -0.003878 1.131570
vt 1.586906 0.020108
vt 1.586906 0.167259
vt 1.579055 0.167259
vt 1.579055 0.020108
vt 0.451324 1.262330
vt 0.451324 1.523850
vt 0.443473 1.523850
vt 0.443473 1.262330
vt 1.586906 0.608528
vt 1.586906 1.000809
vt 1.579055 1.000809
vt 1.579055 0.608528
vt 0.712845 0.673909
vt 0.451324 0.673909
vt 0.451324 0.526758
vt 0.712845 0.526758
vt 1.235886 0.608529
vt 1.497406 0.608529
vt 1.497406 1.000810
vt 1.235886 1.000810
vt 1.235886 0.412388
vt 1.497406 0.412388
vt 1.497406 0.559540
vt 1.235886 0.559540
vt 0.712845 1.262330
vt 0.451324 1.262330
vt 0.451324 0.870049
vt 0.712845 0.870049
vt 1.586906 0.412388
vt 1.586906 0.559539
vt 1.579055 0.559539
vt 1.579055 0.412388
vt 1.586906 -0.568313
vt 1.586906 -0.176033
vt 1.579055 -0.176033
vt 1.579055 -0.568313
vt 1.586906 0.265237
vt 1.579055 0.265237
vt 1.235886 0.265237
vt 1.497406 0.265237
vt 0.712845 0.821060
vt 0.451324 0.821060
vt 1.586906 -0.127044
vt 1.579055 -0.127044
vt 1.235886 0.216248
vt 1.497406 0.216248
vt 1.586906 0.216248
vt 1.579055 0.216248
vt 1.586906 0.216248
vt 1.579055 0.216248
vt 0.451324 0.477769
vt 0.712845 0.477769
vt 0.843605 0.526758
vt 0.781118 0.526758
vt 0.781118 0.477769
vt 0.843605 0.477769
vt 1.105126 0.559540
vt 1.167613 0.559540
vt 1.167612 0.608529
vt 1.105126 0.608529
vt 0.843605 0.870049
vt 0.781118 0.870049
vt 0.781118 0.821060
vt 0.843605 0.821060
vt 1.105126 0.216248
vt 1.167613 0.216248
vt 1.167613 0.265237
vt 1.105126 0.265237
vt 0.843605 1.262330
vt 0.781118 1.262330
vt 1.167612 1.000810
vt 1.105126 1.000810
vt 0.451324 1.131570
vt 0.451324 1.194057
vt 0.443473 1.194057
vt 0.443473 1.131570
vt -0.011729 1.523850
vt -0.011729 1.262330
vt -0.003878 1.262330
vt -0.003878 1.523850
vt 0.451324 1.069083
vt 0.443473 1.069083
vt 1.042639 0.608529
vt 1.042639 1.000810
vt 0.906092 1.262330
vt 0.906092 0.870049
vt 1.042639 0.216248
vt 1.042639 0.265237
vt 0.906092 0.821060
vt 1.042639 0.559540
vt 0.906092 0.526758
vt 0.906092 0.477769
vt -0.011729 1.194057
vt -0.003878 1.194057
vt 0.974365 0.216248
vt 0.974365 0.265237
vt 0.451324 1.000810
vt 0.443473 1.000810
vt 0.974365 0.526758
vt 0.974365 0.477769
vt 0.781118 0.673909
vt 0.974365 0.673909
vt 0.906092 0.673909
vt -0.011729 1.000810
vt -0.003878 1.000810
vt 0.974365 0.608529
vt 0.974365 1.000810
vt 0.974365 0.559540
vt 1.167613 0.412388
vt 0.974365 0.412388
vt 1.042639 0.412388
vt 0.974365 0.870049
vt 0.974365 0.821060
vt 0.974365 1.262330
vt 1.442906 1.073421
vt 1.442906 1.000810
vt 1.450757 1.000810
vt 1.450757 1.073421
vt 1.505258 0.010116
vt 1.505258 0.046410
vt 1.505258 0.477768
vt 1.497406 0.477768
vt 1.497406 0.010116
vt 1.450757 1.042799
vt 1.450757 1.000810
vt 1.458609 1.000810
vt 1.458609 1.042799
vt 1.505258 1.393090
vt 1.505258 1.487640
vt 1.497406 1.487640
vt 1.497406 1.393090
vt 0.430516 1.523851
vt -0.000842 1.523850
vt -0.000842 1.481862
vt 0.430516 1.481862
vt 0.493313 -0.437553
vt 0.451324 -0.437553
vt 0.451324 -0.532103
vt 0.493313 -0.532103
vt 0.493313 0.010116
vt 0.451324 0.010116
vt 0.451324 -0.045272
vt 0.493313 -0.045272
vt 1.579054 1.071684
vt 1.505258 1.071684
vt 1.505258 1.000809
vt 1.497406 1.000809
vt 1.497406 0.945420
vt 1.505258 0.945420
vt 1.505258 0.909127
vt 1.579054 0.909127
vt 1.505258 -0.306793
vt 1.505258 -0.116147
vt 1.505258 -0.045272
vt 1.497406 -0.045272
vt 1.497406 -0.306793
vt 1.505258 0.477768
vt 1.497406 0.477768
vt 0.493313 0.477768
vt 0.451324 0.477768
vt 1.579055 0.046410
vt 1.579055 -0.116147
vt 1.136923 1.523851
vt 0.974365 1.523851
vt 0.974365 1.481862
vt 1.136923 1.481862
vt 1.136923 1.439872
vt 0.974365 1.439872
vt 0.974365 1.073421
vt 1.136923 1.073421
vt 0.901754 0.477768
vt 0.535303 0.477768
vt 0.535303 0.010116
vt 0.901754 0.010116
vt 0.189804 0.550379
vt 0.189804 0.916831
vt -0.000842 0.916831
vt -0.000842 0.550379
vt 0.535303 -0.045272
vt 0.901754 -0.045272
vt 0.430516 1.439872
vt -0.000842 1.439872
vt -0.000842 1.073421
vt 0.430516 1.073421
vt 1.450757 1.451240
vt 1.450757 1.084788
vt 1.458609 1.084788
vt 1.458609 1.451240
vt 1.442906 1.481862
vt 1.442906 1.439872
vt 1.450757 1.439872
vt 1.450757 1.481862
vt 0.535303 -0.306793
vt 0.901754 -0.306793
vt 1.389415 1.131570
vt 1.419351 1.131570
vt 1.419351 1.226119
vt 1.389415 1.226119
vt 1.505258 -0.437553
vt 1.505258 -0.343004
vt 1.497406 -0.343004
vt 1.497406 -0.437553
vt -0.455515 1.304319
vt -0.458551 1.304319
vt -0.458551 1.262330
vt -0.455515 1.262330
vt 0.451324 -0.306793
vt 0.493313 -0.306793
vt 1.505258 1.262330
vt 1.497406 1.262330
vt -0.003878 0.608529
vt -0.055495 0.608529
vt -0.055495 0.513979
vt -0.003878 0.513979
vt 1.386379 1.131570
vt 1.386379 1.037020
vt 1.389415 1.037020
vt -0.000842 0.608529
vt -0.000842 0.513979
vt -0.564821 1.304319
vt -0.561785 1.304319
vt -0.561785 1.346308
vt -0.564821 1.346308
vt -0.564821 1.262330
vt -0.561785 1.262330
vt -0.013506 1.131570
vt -0.055495 1.131570
vt -0.055495 1.037020
vt -0.013506 1.037020
vt -0.455515 1.346308
vt -0.458551 1.346308
vt 1.442906 1.523851
vt 1.450757 1.523851
vt -0.000842 1.000810
vt 0.430516 1.000810
vt 0.189804 0.958821
vt -0.000842 0.958820
vt 0.535303 -0.437553
vt 0.535303 -0.532103
vt 1.326505 1.131570
vt 1.284516 1.131570
vt 1.284516 1.037020
vt 1.326505 1.037020
vt -0.510168 1.304319
vt -0.510168 1.346308
vt -0.510168 1.346308
vt -0.510168 1.304319
vt -0.003878 0.870049
vt -0.055495 0.870049
vt -0.055495 0.775500
vt -0.003878 0.775500
vt -0.003878 0.964599
vt -0.055495 0.964599
vt 1.326505 1.226119
vt 1.284516 1.226119
vt 0.535303 -0.343004
vt 0.493313 -0.343004
vt -0.013506 1.226119
vt -0.055495 1.226119
vt -0.000842 0.703078
vt -0.003878 0.703078
vt 1.386379 1.226119
vt -0.055495 0.703078
vt 1.505258 -0.532103
vt 1.497406 -0.532103
vt 1.419351 1.037020
vt 0.451324 -0.343004
vt 1.505258 1.298540
vt 1.497406 1.298540
vt -0.013506 1.262330
vt -0.055495 1.262330
vt -0.055495 0.739289
vt -0.003878 0.739289
vt -0.003878 1.000810
vt -0.055495 1.000810
vt 1.284516 1.000810
vt 1.326505 1.000810
vt -0.003878 0.739289
vt -0.055495 0.739289
vt 1.326505 1.262330
vt 1.284516 1.262330
vt 0.901754 -0.343004
vt 0.493313 -0.568313
vt 0.535303 -0.568313
vt 0.451324 -0.568313
vt 1.389415 1.262330
vt 1.386379 1.262330
vt -0.055495 1.000810
vt -0.013506 1.000810
vt -0.003878 0.477769
vt -0.000842 0.477769
vt -0.055495 0.477769
vt -0.000842 0.739289
vt 0.451324 0.550379
vt 0.451324 0.916831
vt 0.415114 0.916831
vt 0.415114 0.550379
vt 1.386379 1.000810
vt 1.389415 1.000810
vt 0.901754 -0.532103
vt 0.901754 -0.568313
vt 1.505258 -0.568313
vt 1.497406 -0.568313
vt 0.226014 0.550379
vt 0.226014 0.916831
vt 1.505258 1.523850
vt 1.497406 1.523850
vt 0.226014 0.477768
vt 0.189804 0.477768
vt 0.974365 -0.532103
vt 0.974365 -0.568313
vt 0.451324 0.477768
vt 0.415114 0.477768
vt 0.974365 -0.306793
vt 0.974365 -0.343004
vt 0.901754 -0.437553
vt 0.974365 -0.437553
vt 0.320564 0.550379
vt 0.320564 0.477768
vt 0.974365 -0.045272
vt 1.450757 1.523850
vt 1.458609 1.523850
vt 0.974365 0.010116
vt -0.000842 0.477768
vt 0.974365 0.477768
vt 0.974365 1.000810
vt 1.136923 1.000810
vt 0.189804 1.000809
vt -0.000842 1.000809
vt 1.326505 1.000810
vt 1.356442 1.000810
vt 1.356442 1.367261
vt 1.326505 1.367261
vt -0.594758 1.356879
vt -0.564821 1.356879
vt -0.564821 1.451429
vt -0.594758 1.451429
vt 1.356442 1.000810
vt 1.386379 1.000810
vt 1.386379 1.367261
vt 1.356442 1.367261
vt -0.594758 1.262330
vt -0.564821 1.262330
vt 1.210719 1.451240
vt 1.284516 1.451240
vt 1.284516 1.523850
vt 1.210719 1.523850
vt 1.210720 1.042799
vt 1.284516 1.042799
vt 1.284516 1.084788
vt 1.210720 1.084788
vt 1.210720 1.000810
vt 1.284516 1.000810
vt 1.136923 1.481862
vt 1.210720 1.481862
vt 1.210720 1.523851
vt 1.136923 1.523850
vt 1.136923 1.073421
vt 1.210719 1.073421
vt 1.210720 1.439872
vt 1.136923 1.439872
vt 1.136923 1.000810
vt 1.210720 1.000810
vt 1.427203 1.523850
vt 1.427203 1.000810
vt 1.435055 1.000810
vt 1.435055 1.523850
vt -0.071198 1.523850
vt -0.071198 0.477768
vt -0.063346 0.477768
vt -0.063346 1.523850
vt 1.435055 1.523850
vt 1.435055 1.000810
vt 1.442906 1.000810
vt 1.442906 1.523850
vt -0.063346 1.523850
vt -0.063346 0.477768
vt -0.055495 0.477768
vt -0.055495 1.523850
vt -0.071717 0.477768
vt -0.594758 0.477768
vt -0.594758 -0.568313
vt -0.071717 -0.568313
vt 0.451324 0.477768
vt -0.071717 0.477768
vt -0.071717 -0.568313
vt 0.451324 -0.568313
vt 0.435622 1.523850
vt 0.435622 1.000810
vt 0.443473 1.000810
vt 0.443473 1.523850
vt 1.586906 0.216248
vt 1.586906 -0.568313
vt 1.594758 -0.568313
vt 1.594758 0.216248
vt 1.427203 1.000810
vt 1.427203 1.523850
vt 1.419351 1.523850
vt 1.419351 1.000810
vt 1.594757 0.216248
vt 1.594757 1.000809
vt 1.586906 1.000809
vt 1.586906 0.216248
vt -0.071717 1.262330
vt -0.594758 1.262330
vt -0.594757 0.477769
vt -0.071717 0.477769
vt 0.974365 -0.568313
vt 1.497406 -0.568313
vt 1.497406 0.216248
vt 0.974365 0.216248
vn 0.0000 0.0000 1.0000
vn 0.0000 1.0000 0.0000
vn 0.0000 0.0000 -1.0000
vn 0.0000 -1.0000 -0.0000
vn 1.0000 -0.0000 0.0000
vn -1.0000 -0.0000 0.0000
usemtl Materiał
s 1
f 1/1/1 2/2/1 3/3/1 4/4/1
f 5/5/2 6/6/2 7/7/2 8/8/2
f 9/9/3 10/10/3 11/11/3 12/12/3
f 13/13/4 14/14/4 15/15/4 16/16/4
f 17/17/5 18/18/5 19/19/5 20/20/5
f 21/21/6 16/22/6 15/23/6 22/24/6
f 23/25/6 24/26/6 25/27/6 26/28/6
f 27/29/5 14/30/5 13/31/5 28/32/5
f 18/33/4 29/34/4 25/35/4 24/36/4
f 30/37/2 31/38/2 32/39/2 33/40/2
f 19/41/4 18/33/4 24/36/4 34/42/4
f 35/43/6 34/44/6 24/26/6 23/25/6
f 36/45/5 29/46/5 18/18/5 17/17/5
f 37/47/2 5/5/2 8/8/2 38/48/2
f 12/49/6 11/50/6 34/44/6 35/43/6
f 29/34/4 13/13/4 16/16/4 25/35/4
f 28/32/5 13/31/5 29/46/5 36/45/5
f 10/51/4 19/41/4 34/42/4 11/52/4
f 6/6/2 39/53/2 40/54/2 7/7/2
f 26/28/6 25/27/6 16/22/6 21/21/6
f 31/38/2 37/47/2 38/48/2 32/39/2
f 20/20/5 19/19/5 10/55/5 9/56/5
f 41/57/5 42/58/5 43/59/5 44/60/5
f 45/61/6 46/62/6 47/63/6 48/64/6
f 49/65/5 50/66/5 51/67/5 52/68/5
f 53/69/6 54/70/6 55/71/6 56/72/6
f 1/73/5 59/74/5 50/66/5 49/65/5
f 48/64/6 47/63/6 60/75/6 4/76/6
f 44/77/3 43/78/3 54/79/3 53/80/3
f 14/81/1 27/82/1 22/83/1 15/84/1
f 61/85/3 44/77/3 53/80/3 62/86/3
f 63/87/6 48/64/6 4/76/6 3/88/6
f 2/89/5 1/73/5 49/65/5 65/90/5
f 62/91/6 53/69/6 56/72/6 58/92/6
f 65/90/5 49/65/5 52/68/5 66/93/5
f 67/94/6 45/61/6 48/64/6 63/87/6
f 68/95/5 41/57/5 44/60/5 61/96/5
f 59/97/1 1/1/1 4/4/1 60/98/1
f 40/99/6 62/91/6 58/92/6 7/100/6
f 43/78/3 9/9/3 12/12/3 54/79/3
f 39/101/3 61/85/3 62/86/3 40/102/3
f 42/58/5 20/20/5 9/56/5 43/59/5
f 6/103/5 68/95/5 61/96/5 39/104/5
f 69/105/5 17/17/5 20/20/5 42/58/5
f 51/67/5 36/45/5 17/17/5 69/105/5
f 5/106/5 70/107/5 68/95/5 6/103/5
f 2/2/1 30/108/1 33/109/1 3/3/1
f 47/63/6 21/21/6 22/24/6 60/75/6
f 46/62/6 26/28/6 21/21/6 47/63/6
f 32/110/6 63/87/6 3/88/6 33/111/6
f 38/112/6 67/94/6 63/87/6 32/110/6
f 64/113/6 23/25/6 26/28/6 46/62/6
f 55/71/6 35/43/6 23/25/6 64/113/6
f 8/114/6 57/115/6 67/94/6 38/112/6
f 31/116/5 65/90/5 66/93/5 37/117/5
f 59/74/5 27/29/5 28/32/5 50/66/5
f 27/82/1 59/97/1 60/98/1 22/83/1
f 30/118/5 2/89/5 65/90/5 31/116/5
f 54/70/6 12/49/6 35/43/6 55/71/6
f 7/100/6 58/92/6 57/115/6 8/114/6
f 50/66/5 28/32/5 36/45/5 51/67/5
f 37/117/5 66/93/5 70/107/5 5/106/5
f 71/119/6 72/120/6 73/121/6 74/122/6
f 75/123/2 185/124/2 76/125/2 77/126/2 78/127/2
f 79/128/5 80/129/5 81/130/5 82/131/5
f 83/132/4 84/133/4 85/134/4 86/135/4
f 184/136/1 80/137/1 79/138/1 183/139/1
f 88/140/3 86/141/3 85/142/3 89/143/3
f 90/144/3 91/145/3 92/146/3 93/147/3
f 190/148/4 182/149/4 96/150/4 92/151/4 91/152/4 87/153/4 184/154/4 191/155/4
f 97/156/2 179/157/2 98/158/2 99/159/2 100/160/2
f 80/161/4 184/154/4 87/153/4 91/152/4 81/162/4
f 82/163/3 81/164/3 91/145/3 90/144/3
f 174/165/2 185/124/2 75/123/2 78/127/2 99/159/2 98/158/2 179/157/2 187/166/2
f 190/167/1 191/168/1 192/169/1 176/170/1
f 180/171/1 189/172/1 173/173/1 181/174/1
f 101/175/3 102/176/3 103/177/3 104/178/3
f 105/179/1 106/180/1 177/181/1 175/182/1
f 104/178/3 103/177/3 107/183/3 108/184/3
f 188/185/1 109/186/1 110/187/1 186/188/1
f 110/189/5 109/190/5 102/191/5 101/192/5
f 111/193/6 112/194/6 113/195/6 114/196/6
f 108/184/3 107/183/3 115/197/3 116/198/3
f 117/199/4 118/200/4 119/201/4 120/202/4
f 121/203/2 122/204/2 123/205/2 124/206/2
f 94/207/6 125/208/6 126/209/6 106/210/6
f 93/147/3 92/146/3 127/211/3 128/212/3
f 96/150/4 182/149/4 95/213/4 127/214/4 92/151/4
f 129/215/2 130/216/2 131/217/2 132/218/2
f 117/199/4 133/219/4 134/220/4 135/221/4
f 83/222/2 129/215/2 132/218/2 136/223/2
f 111/224/5 137/225/5 138/226/5 139/227/5
f 112/228/5 140/229/5 137/225/5 111/224/5
f 133/230/1 141/231/1 142/232/1 143/233/1
f 107/183/3 93/147/3 128/212/3 115/197/3
f 95/234/6 144/235/6 125/208/6 94/207/6
f 139/236/6 111/193/6 114/196/6 145/237/6
f 186/188/1 110/187/1 76/238/1 185/239/1
f 176/170/1 192/169/1 189/172/1 180/171/1
f 102/176/3 82/163/3 90/144/3 103/177/3
f 106/180/1 94/240/1 178/241/1 177/181/1
f 103/177/3 90/144/3 93/147/3 107/183/3
f 146/242/3 88/140/3 89/143/3 147/243/3
f 183/139/1 79/138/1 109/186/1 188/185/1
f 109/190/5 79/128/5 82/131/5 102/191/5
f 148/244/1 130/245/1 131/246/1 149/247/1
f 137/225/5 150/248/5 151/249/5 138/226/5
f 144/235/6 152/250/6 153/251/6 125/208/6
f 141/252/4 148/253/4 154/254/4 155/255/4
f 142/256/4 149/257/4 148/253/4 141/252/4
f 154/258/1 156/259/1 130/245/1 148/244/1
f 157/260/3 158/261/3 88/140/3 146/242/3
f 134/262/1 155/263/1 141/231/1 133/230/1
f 84/264/2 159/265/2 129/215/2 83/222/2
f 120/202/4 143/266/4 133/219/4 117/199/4
f 159/265/2 156/267/2 130/216/2 129/215/2
f 160/268/2 121/203/2 124/206/2 161/269/2
f 135/221/4 162/270/4 118/200/4 117/199/4
f 158/261/3 163/271/3 86/141/3 88/140/3
f 136/272/4 83/132/4 86/135/4 163/273/4
f 140/274/1 137/275/1 155/263/1 134/262/1
f 155/255/4 154/254/4 150/276/4 137/277/4
f 125/278/4 153/279/4 149/257/4 142/256/4
f 149/247/1 131/246/1 152/280/1 153/281/1
f 138/282/2 151/283/2 156/267/2 159/265/2
f 150/284/1 151/285/1 156/259/1 154/258/1
f 116/198/3 115/197/3 157/260/3 164/286/3
f 147/243/3 89/143/3 114/287/3 113/288/3
f 115/197/3 128/212/3 158/261/3 157/260/3
f 89/143/3 85/142/3 145/289/3 114/287/3
f 106/290/4 126/291/4 143/266/4 120/202/4
f 143/233/1 142/232/1 125/292/1 126/293/1
f 95/213/4 136/272/4 163/273/4 127/214/4
f 136/223/2 132/218/2 144/294/2 95/295/2
f 132/218/2 131/217/2 152/296/2 144/294/2
f 139/297/2 138/282/2 159/265/2 84/264/2
f 71/298/1 112/299/1 135/300/1 165/301/1
f 135/221/4 134/220/4 140/302/4 112/303/4
f 122/204/2 97/156/2 100/160/2 123/205/2
f 166/304/3 147/243/3 113/288/3 74/305/3
f 72/306/2 160/268/2 161/269/2 73/307/2
f 167/308/1 120/309/1 106/180/1 105/179/1
f 84/133/4 139/310/4 145/311/4 85/134/4
f 128/212/3 127/211/3 163/271/3 158/261/3
f 122/312/1 167/308/1 105/179/1 97/313/1
f 161/314/3 166/304/3 74/305/3 73/315/3
f 72/316/1 71/298/1 165/301/1 160/317/1
f 100/318/3 116/198/3 164/286/3 123/319/3
f 123/319/3 164/286/3 168/320/3 124/321/3
f 160/317/1 165/301/1 169/322/1 121/323/1
f 121/323/1 169/322/1 167/308/1 122/312/1
f 99/324/3 108/184/3 116/198/3 100/318/3
f 76/325/5 110/189/5 101/192/5 77/326/5
f 124/321/3 168/320/3 166/304/3 161/314/3
f 78/327/3 104/178/3 108/184/3 99/324/3
f 97/313/1 105/179/1 175/182/1 179/328/1
f 77/329/3 101/175/3 104/178/3 78/327/3
f 181/174/1 173/173/1 174/330/1 187/331/1
f 94/240/1 95/332/1 182/333/1 178/241/1
f 112/194/6 71/119/6 74/122/6 113/195/6
f 165/334/6 170/335/6 162/336/6 135/337/6
f 169/338/2 171/339/2 170/340/2 165/341/2
f 120/342/5 119/343/5 172/344/5 167/345/5
f 167/346/2 172/347/2 171/339/2 169/338/2
f 175/348/6 181/349/6 187/350/6 179/351/6
f 178/352/6 176/353/6 180/354/6 177/355/6
f 182/356/6 190/357/6 176/353/6 178/352/6
f 177/355/6 180/354/6 181/349/6 175/348/6
f 183/358/5 192/359/5 191/360/5 184/361/5
f 186/362/5 173/363/5 189/364/5 188/365/5
f 188/365/5 189/364/5 192/359/5 183/358/5
f 185/366/5 174/367/5 173/363/5 186/362/5
f 193/368/6 194/369/6 195/370/6 196/371/6
f 194/372/2 197/373/2 198/374/2 195/375/2
f 197/376/5 199/377/5 200/378/5 198/379/5
f 199/380/4 193/381/4 196/382/4 200/383/4
f 194/384/1 193/385/1 199/386/1 197/387/1
f 198/388/3 200/389/3 196/390/3 195/391/3
f 201/392/1 202/393/1 203/394/1 204/395/1
f 202/396/2 205/397/2 206/398/2 203/399/2
f 205/400/3 207/401/3 208/402/3 206/403/3
f 207/404/4 201/405/4 204/406/4 208/407/4
f 202/408/5 201/409/5 207/410/5 205/411/5
f 206/412/6 208/413/6 204/414/6 203/415/6
