# Blender v3.0.0 OBJ File: ''
# www.blender.org
mtllib szafki.mtl
o Shelves1.001
v -0.155000 -0.470000 0.710000
v -0.155000 -0.500000 0.710000
v 0.155000 -0.500000 0.710000
v 0.155000 -0.470000 0.710000
v -0.155000 -0.470000 -0.710000
v 0.155000 -0.470000 -0.710000
v 0.155000 -0.500000 -0.710000
v -0.155000 -0.500000 -0.710000
v -0.155000 -0.227500 0.710000
v -0.155000 -0.257500 0.710000
v 0.155000 -0.257500 0.710000
v 0.155000 -0.227500 0.710000
v -0.155000 -0.227500 -0.710000
v 0.155000 -0.227500 -0.710000
v 0.155000 -0.257500 -0.710000
v -0.155000 -0.257500 -0.710000
v -0.155000 0.015000 0.710000
v -0.155000 -0.015000 0.710000
v 0.155000 -0.015000 0.710000
v 0.155000 0.015000 0.710000
v -0.155000 0.015000 -0.710000
v 0.155000 0.015000 -0.710000
v 0.155000 -0.015000 -0.710000
v -0.155000 -0.015000 -0.710000
v -0.155000 0.257500 0.710000
v -0.155000 0.227500 0.710000
v 0.155000 0.227500 0.710000
v 0.155000 0.257500 0.710000
v -0.155000 0.257500 -0.710000
v 0.155000 0.257500 -0.710000
v 0.155000 0.227500 -0.710000
v -0.155000 0.227500 -0.710000
v -0.155000 0.500000 0.710000
v -0.155000 0.470000 0.710000
v 0.155000 0.470000 0.710000
v 0.155000 0.500000 0.710000
v -0.155000 0.500000 -0.710000
v 0.155000 0.500000 -0.710000
v 0.155000 0.470000 -0.710000
v -0.155000 0.470000 -0.710000
v -0.155000 -0.610000 0.740000
v -0.125000 -0.610000 0.740000
v -0.125000 0.610000 0.740000
v -0.155000 0.610000 0.740000
v -0.155000 -0.610000 0.710000
v -0.155000 0.610000 0.710000
v -0.125000 0.610000 0.710000
v -0.125000 -0.610000 0.710000
v 0.125000 -0.610000 0.740000
v 0.155000 -0.610000 0.740000
v 0.155000 0.610000 0.740000
v 0.125000 0.610000 0.740000
v 0.125000 -0.610000 0.710000
v 0.125000 0.610000 0.710000
v 0.155000 0.610000 0.710000
v 0.155000 -0.610000 0.710000
v -0.155000 -0.610000 -0.710000
v -0.125000 -0.610000 -0.710000
v -0.125000 0.610000 -0.710000
v -0.155000 0.610000 -0.710000
v -0.155000 -0.610000 -0.740000
v -0.155000 0.610000 -0.740000
v -0.125000 0.610000 -0.740000
v -0.125000 -0.610000 -0.740000
v 0.125000 -0.610000 -0.710000
v 0.155000 -0.610000 -0.710000
v 0.155000 0.610000 -0.710000
v 0.125000 0.610000 -0.710000
v 0.125000 -0.610000 -0.740000
v 0.125000 0.610000 -0.740000
v 0.155000 0.610000 -0.740000
v 0.155000 -0.610000 -0.740000
v 1.386426 -0.610000 0.740000
v 1.416426 -0.610000 0.740000
v 1.416426 0.610000 0.740000
v 1.386426 0.610000 0.740000
v 1.386426 -0.610000 0.710000
v 1.386426 0.610000 0.710000
v 1.416426 0.610000 0.710000
v 1.416426 -0.610000 0.710000
v 1.666426 -0.610000 0.740000
v 1.696426 -0.610000 0.740000
v 1.696426 0.610000 0.740000
v 1.666426 0.610000 0.740000
v 1.666426 -0.610000 0.710000
v 1.666426 0.610000 0.710000
v 1.696426 0.610000 0.710000
v 1.696426 -0.610000 0.710000
v 1.386426 -0.610000 -0.710000
v 1.416426 -0.610000 -0.710000
v 1.416426 0.610000 -0.710000
v 1.386426 0.610000 -0.710000
v 1.386426 -0.610000 -0.740000
v 1.386426 0.610000 -0.740000
v 1.416426 0.610000 -0.740000
v 1.416426 -0.610000 -0.740000
v 1.666426 -0.610000 -0.710000
v 1.696426 -0.610000 -0.710000
v 1.696426 0.610000 -0.710000
v 1.666426 0.610000 -0.710000
v 1.666426 -0.610000 -0.740000
v 1.666426 0.610000 -0.740000
v 1.696426 0.610000 -0.740000
v 1.696426 -0.610000 -0.740000
v 1.386426 -0.470000 0.710000
v 1.386426 -0.500000 0.710000
v 1.696426 -0.500000 0.710000
v 1.696426 -0.470000 0.710000
v 1.386426 -0.470000 -0.710000
v 1.696426 -0.470000 -0.710000
v 1.696426 -0.500000 -0.710000
v 1.386426 -0.500000 -0.710000
v 1.386426 -0.227500 0.710000
v 1.386426 -0.257500 0.710000
v 1.696426 -0.257500 0.710000
v 1.696426 -0.227500 0.710000
v 1.386426 -0.227500 -0.710000
v 1.696426 -0.227500 -0.710000
v 1.696426 -0.257500 -0.710000
v 1.386426 -0.257500 -0.710000
v 1.386426 0.015000 0.710000
v 1.386426 -0.015000 0.710000
v 1.696426 -0.015000 0.710000
v 1.696426 0.015000 0.710000
v 1.386426 0.015000 -0.710000
v 1.696426 0.015000 -0.710000
v 1.696426 -0.015000 -0.710000
v 1.386426 -0.015000 -0.710000
v 1.386426 0.257500 0.710000
v 1.386426 0.227500 0.710000
v 1.696426 0.227500 0.710000
v 1.696426 0.257500 0.710000
v 1.386426 0.257500 -0.710000
v 1.696426 0.257500 -0.710000
v 1.696426 0.227500 -0.710000
v 1.386426 0.227500 -0.710000
v 1.386426 0.500000 0.710000
v 1.386426 0.470000 0.710000
v 1.696426 0.470000 0.710000
v 1.696426 0.500000 0.710000
v 1.386426 0.500000 -0.710000
v 1.696426 0.500000 -0.710000
v 1.696426 0.470000 -0.710000
v 1.386426 0.470000 -0.710000
v 1.386426 -0.610000 2.190453
v 1.416426 -0.610000 2.190453
v 1.416426 0.610000 2.190453
v 1.386426 0.610000 2.190453
v 1.386426 -0.610000 2.160453
v 1.386426 0.610000 2.160453
v 1.416426 0.610000 2.160453
v 1.416426 -0.610000 2.160453
v 1.666426 -0.610000 2.190453
v 1.696426 -0.610000 2.190453
v 1.696426 0.610000 2.190453
v 1.666426 0.610000 2.190453
v 1.666426 -0.610000 2.160453
v 1.666426 0.610000 2.160453
v 1.696426 0.610000 2.160453
v 1.696426 -0.610000 2.160453
v 1.386426 -0.470000 2.160454
v 1.386426 -0.500000 2.160454
v 1.696426 -0.500000 2.160454
v 1.696426 -0.470000 2.160454
v 1.386426 -0.470000 0.740454
v 1.696426 -0.470000 0.740454
v 1.696426 -0.500000 0.740454
v 1.386426 -0.500000 0.740454
v 1.386426 -0.227500 2.160454
v 1.386426 -0.257500 2.160454
v 1.696426 -0.257500 2.160454
v 1.696426 -0.227500 2.160454
v 1.386426 -0.227500 0.740454
v 1.696426 -0.227500 0.740454
v 1.696426 -0.257500 0.740454
v 1.386426 -0.257500 0.740454
v 1.386426 0.015000 2.160454
v 1.386426 -0.015000 2.160454
v 1.696426 -0.015000 2.160454
v 1.696426 0.015000 2.160454
v 1.386426 0.015000 0.740454
v 1.696426 0.015000 0.740454
v 1.696426 -0.015000 0.740454
v 1.386426 -0.015000 0.740454
v 1.386426 0.257500 2.160454
v 1.386426 0.227500 2.160454
v 1.696426 0.227500 2.160454
v 1.696426 0.257500 2.160454
v 1.386426 0.257500 0.740454
v 1.696426 0.257500 0.740454
v 1.696426 0.227500 0.740454
v 1.386426 0.227500 0.740454
v 1.386426 0.500000 2.160454
v 1.386426 0.470000 2.160454
v 1.696426 0.470000 2.160454
v 1.696426 0.500000 2.160454
v 1.386426 0.500000 0.740454
v 1.696426 0.500000 0.740454
v 1.696426 0.470000 0.740454
v 1.386426 0.470000 0.740454
vt 0.103075 0.746196
vt 0.110015 0.746196
vt 0.110015 0.817911
vt 0.103075 0.817911
vt 0.145693 0.817911
vt 0.145693 0.746196
vt 0.152634 0.746196
vt 0.152634 0.817911
vt 0.624823 0.710518
vt 0.624823 0.382017
vt 0.631763 0.382017
vt 0.631763 0.710518
vt 0.411732 0.710518
vt 0.340018 0.710518
vt 0.340018 0.382017
vt 0.411733 0.382017
vt 0.519125 0.017839
vt 0.519125 0.346339
vt 0.447410 0.346339
vt 0.447410 0.017839
vt 0.667441 0.382017
vt 0.674381 0.382017
vt 0.674381 0.710518
vt 0.667441 0.710518
vt 0.230930 0.746196
vt 0.237870 0.746196
vt 0.237870 0.817911
vt 0.230930 0.817911
vt 0.188312 0.817911
vt 0.188312 0.746196
vt 0.195252 0.746196
vt 0.195252 0.817911
vt 0.496969 0.710518
vt 0.496969 0.382017
vt 0.503909 0.382017
vt 0.503909 0.710518
vt 0.304340 0.710518
vt 0.232625 0.710518
vt 0.232625 0.382017
vt 0.304340 0.382017
vt 0.089554 0.017839
vt 0.089554 0.346339
vt 0.017839 0.346339
vt 0.017839 0.017839
vt 0.582205 0.382017
vt 0.589145 0.382017
vt 0.589145 0.710518
vt 0.582205 0.710518
vt 0.316166 0.746196
vt 0.323106 0.746196
vt 0.323106 0.817911
vt 0.316166 0.817911
vt 0.273548 0.817911
vt 0.273548 0.746196
vt 0.280488 0.746196
vt 0.280488 0.817911
vt 0.710059 0.710518
vt 0.710059 0.382017
vt 0.716999 0.382017
vt 0.716999 0.710518
vt 0.089554 0.710518
vt 0.017839 0.710518
vt 0.017839 0.382017
vt 0.089554 0.382017
vt 0.304340 0.017839
vt 0.304340 0.346339
vt 0.232625 0.346339
vt 0.232625 0.017839
vt 0.704814 0.017839
vt 0.711755 0.017839
vt 0.711755 0.346339
vt 0.704814 0.346339
vt 0.060457 0.746196
vt 0.067397 0.746196
vt 0.067397 0.817911
vt 0.060457 0.817911
vt 0.017839 0.817911
vt 0.017839 0.746196
vt 0.024779 0.746196
vt 0.024779 0.817911
vt 0.662196 0.346339
vt 0.662196 0.017839
vt 0.669136 0.017839
vt 0.669136 0.346339
vt 0.626518 0.346339
vt 0.554803 0.346339
vt 0.554803 0.017839
vt 0.626518 0.017839
vt 0.411732 0.017839
vt 0.411732 0.346339
vt 0.340018 0.346339
vt 0.340018 0.017839
vt 0.539587 0.382017
vt 0.546527 0.382017
vt 0.546527 0.710518
vt 0.539587 0.710518
vt 0.358784 0.746196
vt 0.365724 0.746196
vt 0.365724 0.817911
vt 0.358784 0.817911
vt 0.401402 0.817911
vt 0.401402 0.746196
vt 0.408342 0.746196
vt 0.408342 0.817911
vt 0.747432 0.346339
vt 0.747432 0.017839
vt 0.754372 0.017839
vt 0.754372 0.346339
vt 0.196947 0.710518
vt 0.125232 0.710518
vt 0.125232 0.382017
vt 0.196947 0.382017
vt 0.196947 0.017839
vt 0.196947 0.346339
vt 0.125232 0.346339
vt 0.125232 0.017839
vt 0.752677 0.382017
vt 0.759617 0.382017
vt 0.759617 0.710518
vt 0.752677 0.710518
vt 0.454351 0.382017
vt 0.461291 0.382017
vt 0.461291 0.664250
vt 0.454351 0.664250
vt 0.887472 0.382017
vt 0.887472 0.664250
vt 0.880532 0.664250
vt 0.880532 0.382017
vt 0.447410 0.664250
vt 0.447410 0.382017
vt 0.539587 0.746196
vt 0.546527 0.746196
vt 0.546527 0.753136
vt 0.539587 0.753136
vt 0.589145 0.746196
vt 0.589145 0.753136
vt 0.582205 0.753136
vt 0.582205 0.746196
vt 0.965768 0.382017
vt 0.972708 0.382017
vt 0.972708 0.664250
vt 0.965768 0.664250
vt 0.832669 0.017839
vt 0.839609 0.017839
vt 0.839609 0.300072
vt 0.832669 0.300072
vt 0.802236 0.382017
vt 0.802236 0.664250
vt 0.795296 0.664250
vt 0.795296 0.382017
vt 0.930090 0.382017
vt 0.930090 0.664250
vt 0.923150 0.664250
vt 0.923150 0.382017
vt 0.631763 0.746196
vt 0.631763 0.753136
vt 0.624823 0.753136
vt 0.624823 0.746196
vt 0.503909 0.753136
vt 0.496969 0.753136
vt 0.496969 0.746196
vt 0.503909 0.746196
vt 0.960523 0.017839
vt 0.967463 0.017839
vt 0.967463 0.300072
vt 0.960523 0.300072
vt 0.917905 0.017839
vt 0.924845 0.017839
vt 0.924845 0.300072
vt 0.917905 0.300072
vt 0.882227 0.017839
vt 0.882227 0.300072
vt 0.875287 0.300072
vt 0.875287 0.017839
vt 0.802236 0.699928
vt 0.802236 0.982161
vt 0.795295 0.982161
vt 0.795295 0.699928
vt 0.752677 0.746196
vt 0.759618 0.746196
vt 0.759618 0.753136
vt 0.752677 0.753136
vt 0.503909 0.788814
vt 0.503909 0.795754
vt 0.496969 0.795754
vt 0.496969 0.788814
vt 0.837914 0.699928
vt 0.844854 0.699928
vt 0.844854 0.982161
vt 0.837914 0.982161
vt 0.790051 0.017839
vt 0.796991 0.017839
vt 0.796991 0.300072
vt 0.790051 0.300072
vt 0.844854 0.382017
vt 0.844854 0.664250
vt 0.837914 0.664250
vt 0.837914 0.382017
vt 0.887472 0.699928
vt 0.887472 0.982161
vt 0.880532 0.982161
vt 0.880532 0.699928
vt 0.667441 0.746196
vt 0.674381 0.746196
vt 0.674381 0.753136
vt 0.667441 0.753136
vt 0.716999 0.746196
vt 0.716999 0.753136
vt 0.710059 0.753136
vt 0.710059 0.746196
vt 0.447410 0.699928
vt 0.454351 0.699928
vt 0.454351 0.982161
vt 0.447410 0.982161
vt 0.454351 0.382017
vt 0.461291 0.382017
vt 0.461291 0.664250
vt 0.454351 0.664250
vt 0.887472 0.382017
vt 0.887472 0.664250
vt 0.880532 0.664250
vt 0.880532 0.382017
vt 0.447410 0.664250
vt 0.447410 0.382017
vt 0.539587 0.746196
vt 0.546527 0.746196
vt 0.546527 0.753136
vt 0.539587 0.753136
vt 0.589145 0.746196
vt 0.589145 0.753136
vt 0.582205 0.753136
vt 0.582205 0.746196
vt 0.965768 0.382017
vt 0.972708 0.382017
vt 0.972708 0.664250
vt 0.965768 0.664250
vt 0.832669 0.017839
vt 0.839609 0.017839
vt 0.839609 0.300072
vt 0.832669 0.300072
vt 0.802236 0.382017
vt 0.802236 0.664250
vt 0.795296 0.664250
vt 0.795296 0.382017
vt 0.930090 0.382017
vt 0.930090 0.664250
vt 0.923150 0.664250
vt 0.923150 0.382017
vt 0.631763 0.746196
vt 0.631763 0.753136
vt 0.624823 0.753136
vt 0.624823 0.746196
vt 0.503909 0.753136
vt 0.496969 0.753136
vt 0.496969 0.746196
vt 0.503909 0.746196
vt 0.960523 0.017839
vt 0.967463 0.017839
vt 0.967463 0.300072
vt 0.960523 0.300072
vt 0.917905 0.017839
vt 0.924845 0.017839
vt 0.924845 0.300072
vt 0.917905 0.300072
vt 0.882227 0.017839
vt 0.882227 0.300072
vt 0.875287 0.300072
vt 0.875287 0.017839
vt 0.802236 0.699928
vt 0.802236 0.982161
vt 0.795295 0.982161
vt 0.795295 0.699928
vt 0.752677 0.746196
vt 0.759618 0.746196
vt 0.759618 0.753136
vt 0.752677 0.753136
vt 0.503909 0.788814
vt 0.503909 0.795754
vt 0.496969 0.795754
vt 0.496969 0.788814
vt 0.837914 0.699928
vt 0.844854 0.699928
vt 0.844854 0.982161
vt 0.837914 0.982161
vt 0.790051 0.017839
vt 0.796991 0.017839
vt 0.796991 0.300072
vt 0.790051 0.300072
vt 0.844854 0.382017
vt 0.844854 0.664250
vt 0.837914 0.664250
vt 0.837914 0.382017
vt 0.887472 0.699928
vt 0.887472 0.982161
vt 0.880532 0.982161
vt 0.880532 0.699928
vt 0.667441 0.746196
vt 0.674381 0.746196
vt 0.674381 0.753136
vt 0.667441 0.753136
vt 0.716999 0.746196
vt 0.716999 0.753136
vt 0.710059 0.753136
vt 0.710059 0.746196
vt 0.447410 0.699928
vt 0.454351 0.699928
vt 0.454351 0.982161
vt 0.447410 0.982161
vt 0.103075 0.746196
vt 0.110015 0.746196
vt 0.110015 0.817911
vt 0.103075 0.817911
vt 0.145693 0.817911
vt 0.145693 0.746196
vt 0.152634 0.746196
vt 0.152634 0.817911
vt 0.624823 0.710518
vt 0.624823 0.382017
vt 0.631763 0.382017
vt 0.631763 0.710518
vt 0.411732 0.710518
vt 0.340018 0.710518
vt 0.340018 0.382017
vt 0.411733 0.382017
vt 0.519125 0.017839
vt 0.519125 0.346339
vt 0.447410 0.346339
vt 0.447410 0.017839
vt 0.667441 0.382017
vt 0.674381 0.382017
vt 0.674381 0.710518
vt 0.667441 0.710518
vt 0.230930 0.746196
vt 0.237870 0.746196
vt 0.237870 0.817911
vt 0.230930 0.817911
vt 0.188312 0.817911
vt 0.188312 0.746196
vt 0.195252 0.746196
vt 0.195252 0.817911
vt 0.496969 0.710518
vt 0.496969 0.382017
vt 0.503909 0.382017
vt 0.503909 0.710518
vt 0.304340 0.710518
vt 0.232625 0.710518
vt 0.232625 0.382017
vt 0.304340 0.382017
vt 0.089554 0.017839
vt 0.089554 0.346339
vt 0.017839 0.346339
vt 0.017839 0.017839
vt 0.582205 0.382017
vt 0.589145 0.382017
vt 0.589145 0.710518
vt 0.582205 0.710518
vt 0.316166 0.746196
vt 0.323106 0.746196
vt 0.323106 0.817911
vt 0.316166 0.817911
vt 0.273548 0.817911
vt 0.273548 0.746196
vt 0.280488 0.746196
vt 0.280488 0.817911
vt 0.710059 0.710518
vt 0.710059 0.382017
vt 0.716999 0.382017
vt 0.716999 0.710518
vt 0.089554 0.710518
vt 0.017839 0.710518
vt 0.017839 0.382017
vt 0.089554 0.382017
vt 0.304340 0.017839
vt 0.304340 0.346339
vt 0.232625 0.346339
vt 0.232625 0.017839
vt 0.704814 0.017839
vt 0.711755 0.017839
vt 0.711755 0.346339
vt 0.704814 0.346339
vt 0.060457 0.746196
vt 0.067397 0.746196
vt 0.067397 0.817911
vt 0.060457 0.817911
vt 0.017839 0.817911
vt 0.017839 0.746196
vt 0.024779 0.746196
vt 0.024779 0.817911
vt 0.662196 0.346339
vt 0.662196 0.017839
vt 0.669136 0.017839
vt 0.669136 0.346339
vt 0.626518 0.346339
vt 0.554803 0.346339
vt 0.554803 0.017839
vt 0.626518 0.017839
vt 0.411732 0.017839
vt 0.411732 0.346339
vt 0.340018 0.346339
vt 0.340018 0.017839
vt 0.539587 0.382017
vt 0.546527 0.382017
vt 0.546527 0.710518
vt 0.539587 0.710518
vt 0.358784 0.746196
vt 0.365724 0.746196
vt 0.365724 0.817911
vt 0.358784 0.817911
vt 0.401402 0.817911
vt 0.401402 0.746196
vt 0.408342 0.746196
vt 0.408342 0.817911
vt 0.747432 0.346339
vt 0.747432 0.017839
vt 0.754372 0.017839
vt 0.754372 0.346339
vt 0.196947 0.710518
vt 0.125232 0.710518
vt 0.125232 0.382017
vt 0.196947 0.382017
vt 0.196947 0.017839
vt 0.196947 0.346339
vt 0.125232 0.346339
vt 0.125232 0.017839
vt 0.752677 0.382017
vt 0.759617 0.382017
vt 0.759617 0.710518
vt 0.752677 0.710518
vt 0.454351 0.382017
vt 0.461291 0.382017
vt 0.461291 0.664250
vt 0.454351 0.664250
vt 0.887472 0.382017
vt 0.887472 0.664250
vt 0.880532 0.664250
vt 0.880532 0.382017
vt 0.447410 0.664250
vt 0.447410 0.382017
vt 0.539587 0.746196
vt 0.546527 0.746196
vt 0.546527 0.753136
vt 0.539587 0.753136
vt 0.589145 0.746196
vt 0.589145 0.753136
vt 0.582205 0.753136
vt 0.582205 0.746196
vt 0.965768 0.382017
vt 0.972708 0.382017
vt 0.972708 0.664250
vt 0.965768 0.664250
vt 0.832669 0.017839
vt 0.839609 0.017839
vt 0.839609 0.300072
vt 0.832669 0.300072
vt 0.802236 0.382017
vt 0.802236 0.664250
vt 0.795296 0.664250
vt 0.795296 0.382017
vt 0.930090 0.382017
vt 0.930090 0.664250
vt 0.923150 0.664250
vt 0.923150 0.382017
vt 0.631763 0.746196
vt 0.631763 0.753136
vt 0.624823 0.753136
vt 0.624823 0.746196
vt 0.503909 0.753136
vt 0.496969 0.753136
vt 0.496969 0.746196
vt 0.503909 0.746196
vt 0.960523 0.017839
vt 0.967463 0.017839
vt 0.967463 0.300072
vt 0.960523 0.300072
vt 0.103075 0.746196
vt 0.110015 0.746196
vt 0.110015 0.817911
vt 0.103075 0.817911
vt 0.145693 0.817911
vt 0.145693 0.746196
vt 0.152634 0.746196
vt 0.152634 0.817911
vt 0.624823 0.710518
vt 0.624823 0.382017
vt 0.631763 0.382017
vt 0.631763 0.710518
vt 0.411732 0.710518
vt 0.340018 0.710518
vt 0.340018 0.382017
vt 0.411733 0.382017
vt 0.519125 0.017839
vt 0.519125 0.346339
vt 0.447410 0.346339
vt 0.447410 0.017839
vt 0.667441 0.382017
vt 0.674381 0.382017
vt 0.674381 0.710518
vt 0.667441 0.710518
vt 0.230930 0.746196
vt 0.237870 0.746196
vt 0.237870 0.817911
vt 0.230930 0.817911
vt 0.188312 0.817911
vt 0.188312 0.746196
vt 0.195252 0.746196
vt 0.195252 0.817911
vt 0.496969 0.710518
vt 0.496969 0.382017
vt 0.503909 0.382017
vt 0.503909 0.710518
vt 0.304340 0.710518
vt 0.232625 0.710518
vt 0.232625 0.382017
vt 0.304340 0.382017
vt 0.089554 0.017839
vt 0.089554 0.346339
vt 0.017839 0.346339
vt 0.017839 0.017839
vt 0.582205 0.382017
vt 0.589145 0.382017
vt 0.589145 0.710518
vt 0.582205 0.710518
vt 0.316166 0.746196
vt 0.323106 0.746196
vt 0.323106 0.817911
vt 0.316166 0.817911
vt 0.273548 0.817911
vt 0.273548 0.746196
vt 0.280488 0.746196
vt 0.280488 0.817911
vt 0.710059 0.710518
vt 0.710059 0.382017
vt 0.716999 0.382017
vt 0.716999 0.710518
vt 0.089554 0.710518
vt 0.017839 0.710518
vt 0.017839 0.382017
vt 0.089554 0.382017
vt 0.304340 0.017839
vt 0.304340 0.346339
vt 0.232625 0.346339
vt 0.232625 0.017839
vt 0.704814 0.017839
vt 0.711755 0.017839
vt 0.711755 0.346339
vt 0.704814 0.346339
vt 0.060457 0.746196
vt 0.067397 0.746196
vt 0.067397 0.817911
vt 0.060457 0.817911
vt 0.017839 0.817911
vt 0.017839 0.746196
vt 0.024779 0.746196
vt 0.024779 0.817911
vt 0.662196 0.346339
vt 0.662196 0.017839
vt 0.669136 0.017839
vt 0.669136 0.346339
vt 0.626518 0.346339
vt 0.554803 0.346339
vt 0.554803 0.017839
vt 0.626518 0.017839
vt 0.411732 0.017839
vt 0.411732 0.346339
vt 0.340018 0.346339
vt 0.340018 0.017839
vt 0.539587 0.382017
vt 0.546527 0.382017
vt 0.546527 0.710518
vt 0.539587 0.710518
vt 0.358784 0.746196
vt 0.365724 0.746196
vt 0.365724 0.817911
vt 0.358784 0.817911
vt 0.401402 0.817911
vt 0.401402 0.746196
vt 0.408342 0.746196
vt 0.408342 0.817911
vt 0.747432 0.346339
vt 0.747432 0.017839
vt 0.754372 0.017839
vt 0.754372 0.346339
vt 0.196947 0.710518
vt 0.125232 0.710518
vt 0.125232 0.382017
vt 0.196947 0.382017
vt 0.196947 0.017839
vt 0.196947 0.346339
vt 0.125232 0.346339
vt 0.125232 0.017839
vt 0.752677 0.382017
vt 0.759617 0.382017
vt 0.759617 0.710518
vt 0.752677 0.710518
vn 0.0000 0.0000 1.0000
vn 0.0000 0.0000 -1.0000
vn -1.0000 0.0000 0.0000
vn 0.0000 1.0000 0.0000
vn 0.0000 -1.0000 -0.0000
vn 1.0000 0.0000 -0.0000
usemtl Shelves_material
s 1
f 1/1/1 2/2/1 3/3/1 4/4/1
f 5/5/2 6/6/2 7/7/2 8/8/2
f 1/9/3 5/10/3 8/11/3 2/12/3
f 1/13/4 4/14/4 6/15/4 5/16/4
f 2/17/5 8/18/5 7/19/5 3/20/5
f 4/21/6 3/22/6 7/23/6 6/24/6
f 9/25/1 10/26/1 11/27/1 12/28/1
f 13/29/2 14/30/2 15/31/2 16/32/2
f 9/33/3 13/34/3 16/35/3 10/36/3
f 9/37/4 12/38/4 14/39/4 13/40/4
f 10/41/5 16/42/5 15/43/5 11/44/5
f 12/45/6 11/46/6 15/47/6 14/48/6
f 17/49/1 18/50/1 19/51/1 20/52/1
f 21/53/2 22/54/2 23/55/2 24/56/2
f 17/57/3 21/58/3 24/59/3 18/60/3
f 17/61/4 20/62/4 22/63/4 21/64/4
f 18/65/5 24/66/5 23/67/5 19/68/5
f 20/69/6 19/70/6 23/71/6 22/72/6
f 25/73/1 26/74/1 27/75/1 28/76/1
f 29/77/2 30/78/2 31/79/2 32/80/2
f 25/81/3 29/82/3 32/83/3 26/84/3
f 25/85/4 28/86/4 30/87/4 29/88/4
f 26/89/5 32/90/5 31/91/5 27/92/5
f 28/93/6 27/94/6 31/95/6 30/96/6
f 33/97/1 34/98/1 35/99/1 36/100/1
f 37/101/2 38/102/2 39/103/2 40/104/2
f 33/105/3 37/106/3 40/107/3 34/108/3
f 33/109/4 36/110/4 38/111/4 37/112/4
f 34/113/5 40/114/5 39/115/5 35/116/5
f 36/117/6 35/118/6 39/119/6 38/120/6
f 41/121/1 42/122/1 43/123/1 44/124/1
f 45/125/2 46/126/2 47/127/2 48/128/2
f 41/121/3 44/124/3 46/129/3 45/130/3
f 41/131/5 45/132/5 48/133/5 42/134/5
f 44/135/4 43/136/4 47/137/4 46/138/4
f 42/139/6 48/140/6 47/141/6 43/142/6
f 49/143/1 50/144/1 51/145/1 52/146/1
f 53/147/2 54/148/2 55/149/2 56/150/2
f 49/151/3 52/152/3 54/153/3 53/154/3
f 49/155/5 53/156/5 56/157/5 50/158/5
f 52/159/4 51/160/4 55/161/4 54/162/4
f 50/163/6 56/164/6 55/165/6 51/166/6
f 57/167/1 58/168/1 59/169/1 60/170/1
f 61/171/2 62/172/2 63/173/2 64/174/2
f 57/175/3 60/176/3 62/177/3 61/178/3
f 57/179/5 61/180/5 64/181/5 58/182/5
f 60/183/4 59/184/4 63/185/4 62/186/4
f 58/187/6 64/188/6 63/189/6 59/190/6
f 65/191/1 66/192/1 67/193/1 68/194/1
f 69/195/2 70/196/2 71/197/2 72/198/2
f 65/199/3 68/200/3 70/201/3 69/202/3
f 65/203/5 69/204/5 72/205/5 66/206/5
f 68/207/4 67/208/4 71/209/4 70/210/4
f 66/211/6 72/212/6 71/213/6 67/214/6
f 73/215/1 74/216/1 75/217/1 76/218/1
f 77/219/2 78/220/2 79/221/2 80/222/2
f 73/215/3 76/218/3 78/223/3 77/224/3
f 73/225/5 77/226/5 80/227/5 74/228/5
f 76/229/4 75/230/4 79/231/4 78/232/4
f 74/233/6 80/234/6 79/235/6 75/236/6
f 81/237/1 82/238/1 83/239/1 84/240/1
f 85/241/2 86/242/2 87/243/2 88/244/2
f 81/245/3 84/246/3 86/247/3 85/248/3
f 81/249/5 85/250/5 88/251/5 82/252/5
f 84/253/4 83/254/4 87/255/4 86/256/4
f 82/257/6 88/258/6 87/259/6 83/260/6
f 89/261/1 90/262/1 91/263/1 92/264/1
f 93/265/2 94/266/2 95/267/2 96/268/2
f 89/269/3 92/270/3 94/271/3 93/272/3
f 89/273/5 93/274/5 96/275/5 90/276/5
f 92/277/4 91/278/4 95/279/4 94/280/4
f 90/281/6 96/282/6 95/283/6 91/284/6
f 97/285/1 98/286/1 99/287/1 100/288/1
f 101/289/2 102/290/2 103/291/2 104/292/2
f 97/293/3 100/294/3 102/295/3 101/296/3
f 97/297/5 101/298/5 104/299/5 98/300/5
f 100/301/4 99/302/4 103/303/4 102/304/4
f 98/305/6 104/306/6 103/307/6 99/308/6
f 105/309/1 106/310/1 107/311/1 108/312/1
f 109/313/2 110/314/2 111/315/2 112/316/2
f 105/317/3 109/318/3 112/319/3 106/320/3
f 105/321/4 108/322/4 110/323/4 109/324/4
f 106/325/5 112/326/5 111/327/5 107/328/5
f 108/329/6 107/330/6 111/331/6 110/332/6
f 113/333/1 114/334/1 115/335/1 116/336/1
f 117/337/2 118/338/2 119/339/2 120/340/2
f 113/341/3 117/342/3 120/343/3 114/344/3
f 113/345/4 116/346/4 118/347/4 117/348/4
f 114/349/5 120/350/5 119/351/5 115/352/5
f 116/353/6 115/354/6 119/355/6 118/356/6
f 121/357/1 122/358/1 123/359/1 124/360/1
f 125/361/2 126/362/2 127/363/2 128/364/2
f 121/365/3 125/366/3 128/367/3 122/368/3
f 121/369/4 124/370/4 126/371/4 125/372/4
f 122/373/5 128/374/5 127/375/5 123/376/5
f 124/377/6 123/378/6 127/379/6 126/380/6
f 129/381/1 130/382/1 131/383/1 132/384/1
f 133/385/2 134/386/2 135/387/2 136/388/2
f 129/389/3 133/390/3 136/391/3 130/392/3
f 129/393/4 132/394/4 134/395/4 133/396/4
f 130/397/5 136/398/5 135/399/5 131/400/5
f 132/401/6 131/402/6 135/403/6 134/404/6
f 137/405/1 138/406/1 139/407/1 140/408/1
f 141/409/2 142/410/2 143/411/2 144/412/2
f 137/413/3 141/414/3 144/415/3 138/416/3
f 137/417/4 140/418/4 142/419/4 141/420/4
f 138/421/5 144/422/5 143/423/5 139/424/5
f 140/425/6 139/426/6 143/427/6 142/428/6
f 145/429/1 146/430/1 147/431/1 148/432/1
f 149/433/2 150/434/2 151/435/2 152/436/2
f 145/429/3 148/432/3 150/437/3 149/438/3
f 145/439/5 149/440/5 152/441/5 146/442/5
f 148/443/4 147/444/4 151/445/4 150/446/4
f 146/447/6 152/448/6 151/449/6 147/450/6
f 153/451/1 154/452/1 155/453/1 156/454/1
f 157/455/2 158/456/2 159/457/2 160/458/2
f 153/459/3 156/460/3 158/461/3 157/462/3
f 153/463/5 157/464/5 160/465/5 154/466/5
f 156/467/4 155/468/4 159/469/4 158/470/4
f 154/471/6 160/472/6 159/473/6 155/474/6
f 161/475/1 162/476/1 163/477/1 164/478/1
f 165/479/2 166/480/2 167/481/2 168/482/2
f 161/483/3 165/484/3 168/485/3 162/486/3
f 161/487/4 164/488/4 166/489/4 165/490/4
f 162/491/5 168/492/5 167/493/5 163/494/5
f 164/495/6 163/496/6 167/497/6 166/498/6
f 169/499/1 170/500/1 171/501/1 172/502/1
f 173/503/2 174/504/2 175/505/2 176/506/2
f 169/507/3 173/508/3 176/509/3 170/510/3
f 169/511/4 172/512/4 174/513/4 173/514/4
f 170/515/5 176/516/5 175/517/5 171/518/5
f 172/519/6 171/520/6 175/521/6 174/522/6
f 177/523/1 178/524/1 179/525/1 180/526/1
f 181/527/2 182/528/2 183/529/2 184/530/2
f 177/531/3 181/532/3 184/533/3 178/534/3
f 177/535/4 180/536/4 182/537/4 181/538/4
f 178/539/5 184/540/5 183/541/5 179/542/5
f 180/543/6 179/544/6 183/545/6 182/546/6
f 185/547/1 186/548/1 187/549/1 188/550/1
f 189/551/2 190/552/2 191/553/2 192/554/2
f 185/555/3 189/556/3 192/557/3 186/558/3
f 185/559/4 188/560/4 190/561/4 189/562/4
f 186/563/5 192/564/5 191/565/5 187/566/5
f 188/567/6 187/568/6 191/569/6 190/570/6
f 193/571/1 194/572/1 195/573/1 196/574/1
f 197/575/2 198/576/2 199/577/2 200/578/2
f 193/579/3 197/580/3 200/581/3 194/582/3
f 193/583/4 196/584/4 198/585/4 197/586/4
f 194/587/5 200/588/5 199/589/5 195/590/5
f 196/591/6 195/592/6 199/593/6 198/594/6
